<svg width="26" height="26" viewBox="0 0 26 26" fill="none" xmlns="http://www.w3.org/2000/svg">
<path fill-rule="evenodd" clip-rule="evenodd" d="M14.806 7.57769C14.4513 7.82359 14.0512 7.99639 13.6291 8.086C13.2069 8.17562 12.7711 8.18025 12.3471 8.09964C11.9232 8.01902 11.5195 7.85477 11.1597 7.61647C10.7998 7.37817 10.4911 7.07059 10.2514 6.71168C10.0118 6.35277 9.84597 5.94972 9.76374 5.52605C9.68151 5.10238 9.68449 4.66658 9.7725 4.24408C9.86051 3.82157 10.0318 3.42083 10.2763 3.06523C10.5209 2.70963 10.8338 2.4063 11.1969 2.17294C11.9136 1.69951 12.7887 1.52909 13.6307 1.69895C14.4727 1.8688 15.2133 2.36511 15.6905 3.07938C16.1677 3.79365 16.3427 4.66778 16.1772 5.5107C16.0118 6.35362 15.5194 7.09676 14.8076 7.57769H14.806ZM13.9041 3.52494C13.7271 3.39763 13.5264 3.30723 13.3137 3.25912C13.1011 3.21101 12.881 3.20618 12.6664 3.24491C12.4519 3.28364 12.2474 3.36515 12.065 3.48457C11.8826 3.60399 11.7261 3.75889 11.6048 3.94005C11.4835 4.1212 11.4 4.32491 11.359 4.53904C11.3181 4.75316 11.3207 4.97334 11.3666 5.18645C11.4126 5.39956 11.5009 5.60125 11.6264 5.77951C11.7519 5.95776 11.912 6.10895 12.0971 6.22406C12.4548 6.44134 12.8825 6.51225 13.2912 6.422C13.6998 6.33176 14.0579 6.08732 14.2909 5.73962C14.5238 5.39192 14.6136 4.96775 14.5415 4.55549C14.4695 4.14323 14.2412 3.77466 13.9041 3.52656V3.52494ZM18.1454 3.57369C18.614 3.25844 19.178 3.11647 19.74 3.17223C20.3021 3.228 20.8271 3.478 21.2247 3.87919C21.5081 4.16478 21.717 4.51552 21.8331 4.90066C21.9493 5.2858 21.9692 5.69357 21.8911 6.08819C21.813 6.48281 21.6392 6.85223 21.3851 7.16406C21.1309 7.47588 20.8041 7.72058 20.4334 7.87669C19.9881 8.06286 19.4974 8.11191 19.024 8.01753C18.5507 7.92315 18.1163 7.68966 17.7765 7.34694C17.5211 7.09021 17.3256 6.78021 17.204 6.4391C17.0824 6.09799 17.0377 5.73422 17.0731 5.37383C17.1085 5.01343 17.2231 4.66531 17.4088 4.35439C17.5944 4.04346 17.8465 3.77743 18.147 3.57531L18.1454 3.57369ZM18.9254 6.18994C19.0779 6.34185 19.2846 6.42695 19.4999 6.42649C19.6065 6.42626 19.712 6.40504 19.8104 6.36403C19.9088 6.32303 19.9982 6.26304 20.0734 6.1875C20.1486 6.11195 20.2083 6.02234 20.2488 5.92376C20.2894 5.82518 20.3102 5.71957 20.31 5.61296C20.3098 5.50635 20.2885 5.40084 20.2475 5.30243C20.2065 5.20402 20.1465 5.11466 20.071 5.03944C19.9197 4.88727 19.7152 4.79987 19.5006 4.79569C19.3934 4.79547 19.2873 4.8165 19.1883 4.85756C19.0893 4.89862 18.9994 4.95889 18.9239 5.0349C18.8483 5.11091 18.7886 5.20114 18.7481 5.30038C18.7076 5.39962 18.6873 5.50589 18.6881 5.61306C18.6886 5.82947 18.7738 6.03548 18.9254 6.18994ZM5.18436 20.2917H8.12561V21.9248H5.18436C4.66947 21.9202 4.17743 21.7115 3.81611 21.3447C3.4534 20.9765 3.25025 20.4803 3.25061 19.9634V17.0222C3.03183 17.0149 2.8168 16.9633 2.6185 16.8706C2.4202 16.7778 2.24275 16.6459 2.09686 16.4827C1.94184 16.3257 1.82018 16.1389 1.7392 15.9336C1.65821 15.7284 1.61958 15.5089 1.62561 15.2883V11.7426C1.63049 10.9756 1.93436 10.2427 2.47061 9.69831C3.00524 9.16044 3.72836 8.85331 4.48561 8.84844H7.47561C7.0723 9.32874 6.7685 9.88442 6.58186 10.4832H4.48561C4.1558 10.4926 3.842 10.6275 3.60811 10.8602C3.37837 11.0964 3.25008 11.4131 3.25061 11.7426V15.3696H4.87561V19.9618C4.87184 20.0061 4.8771 20.0507 4.89107 20.0928C4.90503 20.135 4.92742 20.1739 4.95686 20.2072C5.02218 20.2577 5.10184 20.2861 5.18436 20.2884V20.2917ZM17.0469 9.69993C16.781 9.43145 16.4646 9.21816 16.116 9.07231C15.7675 8.92646 15.3935 8.85093 15.0156 8.85006H10.9856C10.2281 8.85612 9.50368 9.16164 8.97061 9.69993C8.43436 10.2443 8.13049 10.9772 8.12561 11.7442V16.9084C8.12331 17.3519 8.29211 17.7791 8.59686 18.1012C8.74293 18.2642 8.92042 18.396 9.11868 18.4887C9.31694 18.5814 9.53188 18.6331 9.75061 18.6407V22.4156C9.74909 22.6732 9.79856 22.9286 9.89617 23.1671C9.99378 23.4055 10.1376 23.6223 10.3194 23.8049C10.6119 24.0779 10.9807 24.2551 11.3756 24.3119H14.6256C15.0827 24.2519 15.5014 24.0251 15.8014 23.675C16.1014 23.325 16.2613 22.8764 16.2506 22.4156V18.6391C16.4694 18.6317 16.6844 18.5802 16.8827 18.4874C17.081 18.3947 17.2585 18.2628 17.4044 18.0996C17.5593 17.9428 17.6809 17.7563 17.7618 17.5513C17.8428 17.3464 17.8815 17.1271 17.8756 16.9068V11.7426C17.8767 10.9791 17.5793 10.2471 17.0469 9.69993ZM16.2506 16.9881H14.6256V22.4156C14.624 22.5012 14.5891 22.5829 14.5281 22.6431C14.5004 22.6759 14.4654 22.7018 14.4259 22.7187C14.3864 22.7356 14.3435 22.7431 14.3006 22.7406H11.6844C11.5994 22.7366 11.5191 22.7011 11.4589 22.641C11.3988 22.5809 11.3633 22.5005 11.3594 22.4156V16.9881H9.75061V11.7426C9.75061 11.4127 9.87899 11.0958 10.1081 10.8602C10.342 10.6275 10.6558 10.4926 10.9856 10.4832H15.0156C15.2618 10.4875 15.5013 10.5636 15.7048 10.7022C15.9083 10.8408 16.067 11.0357 16.1612 11.2632C16.2231 11.4153 16.2535 11.5784 16.2506 11.7426V16.9881ZM20.8169 21.9232H17.8756V20.2901H20.8006C20.8831 20.2877 20.9628 20.2593 21.0281 20.2088C21.0608 20.1768 21.0864 20.1383 21.1032 20.0957C21.12 20.0532 21.1277 20.0075 21.1256 19.9618V15.3696H22.7506V11.7426C22.7511 11.4131 22.6228 11.0964 22.3931 10.8602C22.1592 10.6275 21.8454 10.4926 21.5156 10.4832H19.4194C19.2328 9.88439 18.929 9.32869 18.5256 8.84844H21.5156C22.273 8.85537 22.997 9.16076 23.5306 9.69831C24.0669 10.2427 24.3707 10.9756 24.3756 11.7426V15.2883C24.3756 15.7319 24.2082 16.1577 23.906 16.4794C23.6037 16.8028 23.191 16.9962 22.7506 17.0206V19.9618C22.7506 20.4802 22.5475 20.9758 22.1851 21.3431C21.8238 21.7099 21.3318 21.9185 20.8169 21.9232ZM6.50061 3.16094C6.01706 3.16037 5.54435 3.30423 5.14308 3.57406C4.74181 3.84389 4.43026 4.2274 4.24836 4.67544C4.06479 5.12332 4.01713 5.61533 4.11134 6.09012C4.20554 6.5649 4.43744 7.00145 4.77811 7.34531C5.11866 7.68877 5.55386 7.92293 6.02812 8.01785C6.50239 8.11278 6.99418 8.06418 7.44069 7.87825C7.8872 7.69232 8.26815 7.37751 8.53487 6.97403C8.80159 6.57055 8.94199 6.09672 8.93811 5.61306C8.93811 4.96306 8.68136 4.33906 8.22311 3.87919C7.99747 3.6519 7.72913 3.47145 7.43353 3.34818C7.13793 3.22492 6.82088 3.16129 6.50061 3.16094ZM6.50061 6.43044C6.39344 6.43065 6.28729 6.40962 6.18829 6.36856C6.0893 6.3275 5.99943 6.26723 5.92387 6.19122C5.84832 6.11521 5.78858 6.02498 5.74811 5.92574C5.70765 5.8265 5.68725 5.72023 5.68811 5.61306C5.68853 5.39725 5.77412 5.19033 5.92626 5.03727C6.0784 4.88422 6.28481 4.7974 6.50061 4.79569C6.71576 4.79948 6.92096 4.88696 7.07266 5.03957C7.22435 5.19218 7.31061 5.3979 7.31311 5.61306C7.31269 5.82887 7.22711 6.03579 7.07496 6.18885C6.92282 6.3419 6.71641 6.42872 6.50061 6.43044Z" fill="#354759"/>
</svg>
