<svg width="26" height="26" viewBox="0 0 26 26" fill="none" xmlns="http://www.w3.org/2000/svg">
<g clip-path="url(#clip0_1402_40)">
<path d="M24.375 4.06267H16.9812C16.7948 3.14431 16.2965 2.31866 15.571 1.72561C14.8454 1.13256 13.9371 0.808594 13 0.808594C12.0629 0.808594 11.1546 1.13256 10.429 1.72561C9.70347 2.31866 9.20523 3.14431 9.01875 4.06267H1.625C1.40951 4.06267 1.20285 4.14827 1.05048 4.30064C0.898102 4.45302 0.8125 4.65968 0.8125 4.87517C0.8125 5.09065 0.898102 5.29732 1.05048 5.44969C1.20285 5.60206 1.40951 5.68767 1.625 5.68767H24.375C24.5905 5.68767 24.7972 5.60206 24.9495 5.44969C25.1019 5.29732 25.1875 5.09065 25.1875 4.87517C25.1875 4.65968 25.1019 4.45302 24.9495 4.30064C24.7972 4.14827 24.5905 4.06267 24.375 4.06267ZM13 2.43767C13.5029 2.43908 13.993 2.59601 14.4032 2.88693C14.8134 3.17785 15.1236 3.58853 15.2912 4.06267H10.7088C10.8764 3.58853 11.1866 3.17785 11.5968 2.88693C12.007 2.59601 12.4971 2.43908 13 2.43767ZM21.4337 7.37767C21.2858 7.31545 21.1227 7.29845 20.9651 7.32881C20.8075 7.35918 20.6624 7.43555 20.5481 7.54829C20.4728 7.62421 20.4132 7.71425 20.3728 7.81324C20.3324 7.91224 20.3119 8.01824 20.3125 8.12517C20.3125 8.34065 20.3981 8.54732 20.5505 8.69969C20.7028 8.85206 20.9095 8.93767 21.125 8.93767C21.3405 8.93767 21.5472 8.85206 21.6995 8.69969C21.8519 8.54732 21.9375 8.34065 21.9375 8.12517C21.9345 7.91004 21.8503 7.70399 21.7019 7.54829C21.6246 7.47432 21.5335 7.41634 21.4337 7.37767ZM21.125 10.5627C20.9095 10.5627 20.7028 10.6483 20.5505 10.8006C20.3981 10.953 20.3125 11.1597 20.3125 11.3752V13.8127C20.3125 14.0282 20.3981 14.2348 20.5505 14.3872C20.7028 14.5396 20.9095 14.6252 21.125 14.6252C21.3405 14.6252 21.5472 14.5396 21.6995 14.3872C21.8519 14.2348 21.9375 14.0282 21.9375 13.8127V11.3752C21.9375 11.1597 21.8519 10.953 21.6995 10.8006C21.5472 10.6483 21.3405 10.5627 21.125 10.5627ZM21.125 16.2502C20.9095 16.2502 20.7028 16.3358 20.5505 16.4881C20.3981 16.6405 20.3125 16.8472 20.3125 17.0627V22.7502C20.3125 22.9657 20.2269 23.1723 20.0745 23.3247C19.9222 23.4771 19.7155 23.5627 19.5 23.5627H6.5C6.28451 23.5627 6.07785 23.4771 5.92548 23.3247C5.7731 23.1723 5.6875 22.9657 5.6875 22.7502V8.12517C5.6875 7.90968 5.6019 7.70302 5.44952 7.55064C5.29715 7.39827 5.09049 7.31267 4.875 7.31267C4.65951 7.31267 4.45285 7.39827 4.30048 7.55064C4.1481 7.70302 4.0625 7.90968 4.0625 8.12517V22.7502C4.0625 23.3966 4.31931 24.0166 4.77643 24.4737C5.23355 24.9309 5.85353 25.1877 6.5 25.1877H19.5C20.1465 25.1877 20.7665 24.9309 21.2236 24.4737C21.6807 24.0166 21.9375 23.3966 21.9375 22.7502V17.0627C21.9375 16.8472 21.8519 16.6405 21.6995 16.4881C21.5472 16.3358 21.3405 16.2502 21.125 16.2502Z" fill="#354759"/>
<path d="M9.75 19.5V8.9375C9.75 8.72201 9.6644 8.51535 9.51202 8.36298C9.35965 8.2106 9.15299 8.125 8.9375 8.125C8.72201 8.125 8.51535 8.2106 8.36298 8.36298C8.2106 8.51535 8.125 8.72201 8.125 8.9375V19.5C8.125 19.7155 8.2106 19.9222 8.36298 20.0745C8.51535 20.2269 8.72201 20.3125 8.9375 20.3125C9.15299 20.3125 9.35965 20.2269 9.51202 20.0745C9.6644 19.9222 9.75 19.7155 9.75 19.5ZM13.8125 19.5V8.9375C13.8125 8.72201 13.7269 8.51535 13.5745 8.36298C13.4222 8.2106 13.2155 8.125 13 8.125C12.7845 8.125 12.5778 8.2106 12.4255 8.36298C12.2731 8.51535 12.1875 8.72201 12.1875 8.9375V19.5C12.1875 19.7155 12.2731 19.9222 12.4255 20.0745C12.5778 20.2269 12.7845 20.3125 13 20.3125C13.2155 20.3125 13.4222 20.2269 13.5745 20.0745C13.7269 19.9222 13.8125 19.7155 13.8125 19.5ZM17.875 19.5V8.9375C17.875 8.72201 17.7894 8.51535 17.637 8.36298C17.4847 8.2106 17.278 8.125 17.0625 8.125C16.847 8.125 16.6403 8.2106 16.488 8.36298C16.3356 8.51535 16.25 8.72201 16.25 8.9375V19.5C16.25 19.7155 16.3356 19.9222 16.488 20.0745C16.6403 20.2269 16.847 20.3125 17.0625 20.3125C17.278 20.3125 17.4847 20.2269 17.637 20.0745C17.7894 19.9222 17.875 19.7155 17.875 19.5Z" fill="#354759"/>
</g>
<defs>
<clipPath id="clip0_1402_40">
<rect width="26" height="26" fill="white"/>
</clipPath>
</defs>
</svg>
