<svg width="26" height="26" viewBox="0 0 26 26" fill="none" xmlns="http://www.w3.org/2000/svg">
<path d="M23.0522 6.93288L12.7172 17.2678C11.6881 18.297 8.63305 18.7737 7.95055 18.0912C7.26805 17.4087 7.73388 14.3537 8.76305 13.3245L19.1089 2.97868C19.364 2.70033 19.6729 2.47658 20.017 2.3209C20.3609 2.16523 20.7329 2.08084 21.1105 2.07288C21.4879 2.06494 21.8632 2.13356 22.2134 2.27462C22.5637 2.41568 22.8817 2.62628 23.1483 2.89365C23.415 3.16102 23.6247 3.47962 23.7648 3.83026C23.9048 4.1809 23.9725 4.55627 23.9635 4.93376C23.9546 5.31125 23.8691 5.68304 23.7125 6.02662C23.5559 6.3702 23.3313 6.6785 23.0522 6.93288Z" stroke="#354759" stroke-linecap="round" stroke-linejoin="round"/>
<path d="M11.916 4.33398H6.49935C5.35007 4.33398 4.24794 4.79052 3.43528 5.60319C2.62263 6.41585 2.16602 7.51804 2.16602 8.66732V19.5007C2.16602 20.65 2.62263 21.7521 3.43528 22.5648C4.24794 23.3775 5.35007 23.834 6.49935 23.834H18.416C20.8102 23.834 21.666 21.884 21.666 19.5007V14.084" stroke="#354759" stroke-linecap="round" stroke-linejoin="round"/>
</svg>
