<svg width="26" height="26" viewBox="0 0 26 26" fill="none" xmlns="http://www.w3.org/2000/svg">
<path d="M9.9287 19.1214C9.66897 19.3639 9.46796 19.5262 9.26253 19.6448C8.25697 20.2254 7.01809 20.2254 6.01254 19.6448C5.64198 19.4308 5.28579 19.0746 4.5734 18.3624C3.86101 17.65 3.50481 17.2938 3.29089 16.9231C2.71033 15.9176 2.71033 14.6787 3.29089 13.6731C3.50481 13.3026 3.86101 12.9464 4.5734 12.234L7.63753 9.16993C8.34992 8.45754 8.70611 8.10134 9.07666 7.88741C10.0822 7.30685 11.3211 7.30685 12.3267 7.8874C12.6972 8.10134 13.0534 8.45754 13.7658 9.16993C14.4782 9.88232 14.8344 10.2385 15.0483 10.609C15.6289 11.6146 15.6289 12.8535 15.0483 13.859C14.9297 14.0644 14.7674 14.2655 14.5249 14.5252M11.4746 11.475C11.2321 11.7346 11.0698 11.9357 10.9512 12.1411C10.3707 13.1466 10.3707 14.3855 10.9512 15.3911C11.1651 15.7617 11.5213 16.1179 12.2337 16.8302C12.9461 17.5426 13.3023 17.8988 13.6728 18.1128C14.6784 18.6933 15.9173 18.6933 16.9228 18.1128C17.2934 17.8988 17.6496 17.5426 18.362 16.8302L21.4261 13.7661C22.1385 13.0537 22.4947 12.6975 22.7086 12.327C23.2891 11.3214 23.2891 10.0825 22.7086 9.07699C22.4947 8.70644 22.1385 8.35024 21.4261 7.63786C20.7137 6.92547 20.3575 6.56928 19.987 6.35534C18.9814 5.77478 17.7426 5.77478 16.737 6.35534C16.5315 6.47394 16.3306 6.63626 16.0708 6.87875" stroke="#354759" stroke-linecap="round"/>
</svg>
