<svg width="26" height="26" viewBox="0 0 26 26" fill="none" xmlns="http://www.w3.org/2000/svg">
<g clip-path="url(#clip0_1402_15)">
<path d="M1.83482 3.44922H0.295938C0.132462 3.44922 0 3.58174 0 3.74516V22.254C0 22.4175 0.132462 22.55 0.295938 22.55H1.83482C1.99829 22.55 2.13075 22.4175 2.13075 22.254V3.74516C2.13075 3.58168 1.99829 3.44922 1.83482 3.44922Z" fill="#354759"/>
<path d="M4.55705 3.44922H3.25492C3.09145 3.44922 2.95898 3.58174 2.95898 3.74516V22.254C2.95898 22.4175 3.09145 22.55 3.25492 22.55H4.55705C4.72053 22.55 4.85299 22.4175 4.85299 22.254V3.74516C4.85299 3.58168 4.72053 3.44922 4.55705 3.44922Z" fill="#354759"/>
<path d="M6.74778 3.44922H6.09672C5.93324 3.44922 5.80078 3.58174 5.80078 3.74516V22.254C5.80078 22.4175 5.93324 22.55 6.09672 22.55H6.74778C6.91126 22.55 7.04372 22.4175 7.04372 22.254V3.74516C7.04372 3.58168 6.91126 3.44922 6.74778 3.44922Z" fill="#354759"/>
<path d="M8.74826 3.44922H8.00102C7.83754 3.44922 7.70508 3.58174 7.70508 3.74516V22.254C7.70508 22.4175 7.83754 22.55 8.00102 22.55H8.74826C8.91174 22.55 9.0442 22.4175 9.0442 22.254V3.74516C9.0442 3.58168 8.91174 3.44922 8.74826 3.44922Z" fill="#354759"/>
<path d="M11.8272 3.44922H10.6065C10.443 3.44922 10.3105 3.58174 10.3105 3.74516V22.254C10.3105 22.4175 10.443 22.55 10.6065 22.55H11.8272C11.9907 22.55 12.1232 22.4175 12.1232 22.254V3.74516C12.1232 3.58168 11.9907 3.44922 11.8272 3.44922Z" fill="#354759"/>
<path d="M13.8204 3.44922H13.21C13.0465 3.44922 12.9141 3.58174 12.9141 3.74516V22.254C12.9141 22.4175 13.0465 22.55 13.21 22.55H13.8204C13.9839 22.55 14.1163 22.4175 14.1163 22.254V3.74516C14.1163 3.58168 13.9839 3.44922 13.8204 3.44922Z" fill="#354759"/>
<path d="M15.9407 3.44922H15.1827C15.0191 3.44922 14.8867 3.58174 14.8867 3.74516V22.254C14.8867 22.4175 15.0191 22.55 15.1827 22.55H15.9407C16.1041 22.55 16.2366 22.4175 16.2366 22.254V3.74516C16.2366 3.58168 16.1041 3.44922 15.9407 3.44922Z" fill="#354759"/>
<path d="M19.0294 3.44922H18.419C18.2555 3.44922 18.123 3.58174 18.123 3.74516V22.254C18.123 22.4175 18.2555 22.55 18.419 22.55H19.0294C19.1929 22.55 19.3254 22.4175 19.3254 22.254V3.74516C19.3254 3.58168 19.1929 3.44922 19.0294 3.44922Z" fill="#354759"/>
<path d="M22.3142 3.44922H21.044C20.8804 3.44922 20.748 3.58174 20.748 3.74516V22.254C20.748 22.4175 20.8804 22.55 21.044 22.55H22.3142C22.4777 22.55 22.6101 22.4175 22.6101 22.254V3.74516C22.6101 3.58168 22.4777 3.44922 22.3142 3.44922Z" fill="#354759"/>
<path d="M25.7034 3.44922H23.8838C23.7204 3.44922 23.5879 3.58174 23.5879 3.74516V22.254C23.5879 22.4175 23.7204 22.55 23.8838 22.55H25.7034C25.867 22.55 25.9993 22.4175 25.9993 22.254V3.74516C25.9993 3.58168 25.8669 3.44922 25.7034 3.44922Z" fill="#354759"/>
</g>
<defs>
<clipPath id="clip0_1402_15">
<rect width="26" height="26" fill="white"/>
</clipPath>
</defs>
</svg>
