<svg width="26" height="26" viewBox="0 0 26 26" fill="none" xmlns="http://www.w3.org/2000/svg">
<path d="M12.4587 13.0002H5.87028M5.68354 13.8638L4.59505 17.1154C3.99889 18.8961 3.70081 19.7865 3.91472 20.3348C4.10048 20.811 4.49946 21.172 4.99178 21.3095C5.5587 21.4676 6.41497 21.0823 8.1275 20.3117L19.1064 15.3712C20.778 14.6189 21.6138 14.2429 21.8721 13.7204C22.0965 13.2665 22.0965 12.7338 21.8721 12.2799C21.6138 11.7575 20.778 11.3814 19.1064 10.6292L8.10857 5.68015C6.40119 4.91184 5.54751 4.52768 4.98116 4.68527C4.4893 4.82213 4.09036 5.18218 3.90396 5.65747C3.6893 6.20476 3.9842 7.09323 4.574 8.87018L5.68565 12.2194C5.78694 12.5246 5.8376 12.6773 5.85758 12.8333C5.87533 12.9718 5.87514 13.112 5.85705 13.2505C5.83665 13.4065 5.78562 13.5589 5.68354 13.8638Z" stroke="#354759" stroke-linecap="round" stroke-linejoin="round"/>
</svg>
