<svg width="26" height="26" viewBox="0 0 26 26" fill="none" xmlns="http://www.w3.org/2000/svg">
<path d="M4.06026 17.5042H7.37916L6.38893 22.4227C6.36716 22.5315 6.35629 22.6621 6.35629 22.7709C6.35629 23.3041 6.72628 23.5979 7.23769 23.5979C7.76002 23.5979 8.14087 23.315 8.2497 22.7818L9.31612 17.5042H14.4632L13.4729 22.4227C13.4403 22.5315 13.4294 22.6621 13.4294 22.7709C13.4294 23.3041 13.7994 23.5979 14.3217 23.5979C14.844 23.5979 15.2248 23.315 15.3337 22.7818L16.3892 17.5042H20.274C20.8725 17.5042 21.286 17.0689 21.286 16.4813C21.286 16.0025 20.9595 15.6108 20.4698 15.6108H16.7809L17.9344 9.86522H21.743C22.3415 9.86522 22.755 9.42996 22.755 8.84231C22.755 8.36354 22.4286 7.97182 21.9389 7.97182H18.3153L19.2076 3.58645C19.2184 3.52118 19.2402 3.37971 19.2402 3.23829C19.2402 2.70506 18.8594 2.40039 18.337 2.40039C17.7277 2.40039 17.4556 2.73769 17.3468 3.24915L16.3892 7.97182H11.2422L12.1345 3.58645C12.1454 3.52118 12.1671 3.37971 12.1671 3.23829C12.1671 2.70506 11.7754 2.40039 11.2639 2.40039C10.6437 2.40039 10.3608 2.73769 10.2628 3.24915L9.30521 7.97182H5.73606C5.13754 7.97182 4.72405 8.42886 4.72405 9.02733C4.72405 9.51701 5.05049 9.86522 5.54017 9.86522H8.9244L7.77093 15.6108H4.25614C3.65763 15.6108 3.24414 16.0678 3.24414 16.6663C3.24414 17.1559 3.57058 17.5042 4.06026 17.5042ZM9.69697 15.6108L10.8613 9.86522H16.0084L14.844 15.6108H9.69697Z" fill="#354759"/>
</svg>
