<svg width="26" height="26" viewBox="0 0 26 26" fill="none" xmlns="http://www.w3.org/2000/svg">
<path d="M13.0007 4.33398V6.50065M13.0007 6.50065C15.1673 6.50065 16.4312 7.22287 16.7923 8.66732M13.0007 6.50065C9.75065 6.50065 9.20898 8.62022 9.20898 9.75065C9.20898 14.236 16.7923 11.8793 16.7923 16.2507C16.7923 17.3811 16.2507 19.5006 13.0007 19.5006M13.0007 19.5006V21.6673M13.0007 19.5006C10.834 19.5006 9.5701 18.7784 9.20898 17.334" stroke="#354759" stroke-linecap="square"/>
<path d="M13.0007 4.33398V6.50065M13.0007 6.50065C15.1673 6.50065 16.4312 7.22287 16.7923 8.66732M13.0007 6.50065C9.75065 6.50065 9.20898 8.62022 9.20898 9.75065C9.20898 14.236 16.7923 11.8793 16.7923 16.2507C16.7923 17.3811 16.2507 19.5006 13.0007 19.5006M13.0007 19.5006V21.6673M13.0007 19.5006C10.834 19.5006 9.5701 18.7784 9.20898 17.334" stroke="#354759" stroke-linecap="square"/>
</svg>
