<svg width="800" height="800" viewBox="0 0 800 800" fill="none" xmlns="http://www.w3.org/2000/svg">
<path d="M433.334 566.667C433.334 503.814 433.334 472.387 452.861 452.861C472.387 433.334 503.814 433.334 566.667 433.334H600.001C662.854 433.334 694.281 433.334 713.807 452.861C733.334 472.387 733.334 503.814 733.334 566.667C733.334 629.521 733.334 660.947 713.807 680.474C694.281 700.001 662.854 700.001 600.001 700.001H566.667C503.814 700.001 472.387 700.001 452.861 680.474C433.334 660.947 433.334 629.521 433.334 566.667Z" stroke="#354759" stroke-width="50"/>
<path d="M383.333 383.333V283.333M383.333 383.333H283.333M383.333 383.333L250 250" stroke="#354759" stroke-width="50" stroke-linecap="round" stroke-linejoin="round"/>
<path d="M366.666 700H333.333C207.625 700 144.771 700 105.718 660.947C66.666 621.897 66.666 559.04 66.666 433.333V366.667M733.333 366.667C733.333 240.959 733.333 178.105 694.279 139.052C655.229 100 592.373 100 466.666 100H333.333C207.625 100 144.771 100 105.718 139.052C83.9457 160.825 74.3117 189.996 70.049 233.333" stroke="#354759" stroke-width="50" stroke-linecap="round"/>
</svg>
