<svg width="34" height="34" viewBox="0 0 34 34" fill="none" xmlns="http://www.w3.org/2000/svg">
<g filter="url(#filter0_d_1379_23)">
<mask id="path-1-inside-1_1379_23" fill="white">
<path d="M17.0009 18.1049L7.47886 13.002L11.3702 10.9146L9.63075 9.98242L4 13.002L17.0009 19.9673L30 13.002L24.3692 9.98242L22.6335 10.9146L26.523 13.002L17.0009 18.1049Z"/>
</mask>
<path d="M17.0009 18.1049L-11.2641 70.8479L17.0009 85.9952L45.266 70.8479L17.0009 18.1049ZM7.47886 13.002L-20.8073 -39.7297L-119.158 13.0273L-20.7862 65.745L7.47886 13.002ZM11.3702 10.9146L39.6563 63.6463L138.004 10.891L39.6366 -41.8276L11.3702 10.9146ZM9.63075 9.98242L37.8972 -42.7598L9.622 -57.9135L-18.6493 -42.7525L9.63075 9.98242ZM4 13.002L-24.28 -39.7329L-122.664 13.0272L-24.2591 65.7482L4 13.002ZM17.0009 19.9673L-11.2581 72.7135L17.003 87.8546L45.2631 72.7118L17.0009 19.9673ZM30 13.002L58.2622 65.7465L156.657 13.0234L58.28 -39.7329L30 13.002ZM24.3692 9.98242L52.6493 -42.7525L24.3476 -57.9298L-3.94437 -42.7345L24.3692 9.98242ZM22.6335 10.9146L-5.68006 -41.8023L-103.871 10.935L-5.6631 63.6407L22.6335 10.9146ZM26.523 13.002L54.7881 65.745L153.136 13.0399L54.8197 -39.724L26.523 13.002ZM45.266 -34.6381L35.7439 -39.741L-20.7862 65.745L-11.2641 70.8479L45.266 -34.6381ZM35.765 65.7337L39.6563 63.6463L-16.9159 -41.817L-20.8073 -39.7297L35.765 65.7337ZM39.6366 -41.8276L37.8972 -42.7598L-18.6357 62.7247L-16.8963 63.6569L39.6366 -41.8276ZM-18.6493 -42.7525L-24.28 -39.7329L32.28 65.737L37.9108 62.7174L-18.6493 -42.7525ZM-24.2591 65.7482L-11.2581 72.7135L45.26 -32.7789L32.2591 -39.7442L-24.2591 65.7482ZM45.2631 72.7118L58.2622 65.7465L1.73779 -39.7425L-11.2613 -32.7772L45.2631 72.7118ZM58.28 -39.7329L52.6493 -42.7525L-3.91079 62.7174L1.71996 65.737L58.28 -39.7329ZM-3.94437 -42.7345L-5.68006 -41.8023L50.9472 63.6316L52.6829 62.6994L-3.94437 -42.7345ZM-5.6631 63.6407L-1.77364 65.7281L54.8197 -39.724L50.9302 -41.8114L-5.6631 63.6407ZM-1.74207 -39.741L-11.2641 -34.6381L45.266 70.8479L54.7881 65.745L-1.74207 -39.741Z" fill="#354759" mask="url(#path-1-inside-1_1379_23)"/>
<mask id="path-3-inside-2_1379_23" fill="white">
<path d="M17.0009 24.1381L7.47886 19.0352L11.3702 16.9478L9.63075 16.0156L4 19.0352L17.0009 26.0005L30 19.0352L24.3692 16.0156L22.6335 16.9478L26.523 19.0352L17.0009 24.1381Z"/>
</mask>
<path d="M17.0009 24.1381L-11.2641 76.8811L17.0009 92.0284L45.266 76.8811L17.0009 24.1381ZM7.47886 19.0352L-20.8073 -33.6965L-119.158 19.0605L-20.7862 71.7782L7.47886 19.0352ZM11.3702 16.9478L39.6563 69.6795L138.004 16.9242L39.6366 -35.7944L11.3702 16.9478ZM9.63075 16.0156L37.8972 -36.7266L9.62199 -51.8803L-18.6493 -36.7193L9.63075 16.0156ZM4 19.0352L-24.28 -33.6997L-122.664 19.0604L-24.259 71.7814L4 19.0352ZM17.0009 26.0005L-11.2581 78.7467L17.003 93.8877L45.2631 78.745L17.0009 26.0005ZM30 19.0352L58.2622 71.7797L156.657 19.0566L58.28 -33.6997L30 19.0352ZM24.3692 16.0156L52.6493 -36.7193L24.3476 -51.8966L-3.94436 -36.7013L24.3692 16.0156ZM22.6335 16.9478L-5.68006 -35.7691L-103.871 16.9682L-5.66311 69.6739L22.6335 16.9478ZM26.523 19.0352L54.7881 71.7782L153.136 19.0731L54.8197 -33.6908L26.523 19.0352ZM45.266 -28.6049L35.7439 -33.7078L-20.7862 71.7782L-11.2641 76.8811L45.266 -28.6049ZM35.765 71.7669L39.6563 69.6795L-16.9159 -35.7838L-20.8073 -33.6965L35.765 71.7669ZM39.6366 -35.7944L37.8972 -36.7266L-18.6357 68.7579L-16.8963 69.6901L39.6366 -35.7944ZM-18.6493 -36.7193L-24.28 -33.6997L32.28 71.7702L37.9108 68.7506L-18.6493 -36.7193ZM-24.259 71.7814L-11.2581 78.7467L45.26 -26.7457L32.259 -33.711L-24.259 71.7814ZM45.2631 78.745L58.2622 71.7797L1.7378 -33.7093L-11.2613 -26.744L45.2631 78.745ZM58.28 -33.6997L52.6493 -36.7193L-3.91079 68.7506L1.71996 71.7702L58.28 -33.6997ZM-3.94436 -36.7013L-5.68006 -35.7691L50.9472 69.6648L52.6829 68.7326L-3.94436 -36.7013ZM-5.66311 69.6739L-1.77365 71.7612L54.8197 -33.6908L50.9302 -35.7782L-5.66311 69.6739ZM-1.74207 -33.7078L-11.2641 -28.6049L45.266 76.8811L54.7881 71.7782L-1.74207 -33.7078Z" fill="#354759" mask="url(#path-3-inside-2_1379_23)"/>
<mask id="path-5-inside-3_1379_23" fill="white">
<path d="M17.0009 0L4 6.96532L17.0009 13.9286L30 6.96329L17.0009 0ZM17.0009 1.86242L26.523 6.96532L17.0009 12.0682L7.47886 6.96532L17.0009 1.86242Z"/>
</mask>
<path d="M17.0009 0L45.2567 -52.7479L16.9989 -67.885L-11.2581 -52.7462L17.0009 0ZM4 6.96532L-24.259 -45.7809L-122.725 6.97299L-24.2527 59.7149L4 6.96532ZM17.0009 13.9286L-11.2517 66.6782L17.0071 81.8136L45.2631 66.6731L17.0009 13.9286ZM30 6.96329L58.2622 59.7078L156.711 6.95562L58.2558 -45.7846L30 6.96329ZM17.0009 1.86242L45.266 -50.8806L17.0009 -66.0279L-11.2641 -50.8806L17.0009 1.86242ZM26.523 6.96532L54.7881 59.7083L153.207 6.96532L54.7881 -45.7777L26.523 6.96532ZM17.0009 12.0682L-11.2641 64.8112L17.0009 79.9585L45.266 64.8112L17.0009 12.0682ZM7.47886 6.96532L-20.7862 -45.7777L-119.205 6.96532L-20.7862 59.7083L7.47886 6.96532ZM-11.2581 -52.7462L-24.259 -45.7809L32.259 59.7115L45.26 52.7462L-11.2581 -52.7462ZM-24.2527 59.7149L-11.2517 66.6782L45.2536 -38.821L32.2527 -45.7843L-24.2527 59.7149ZM45.2631 66.6731L58.2622 59.7078L1.7378 -45.7812L-11.2613 -38.8159L45.2631 66.6731ZM58.2558 -45.7846L45.2567 -52.7479L-11.2549 52.7479L1.74419 59.7112L58.2558 -45.7846ZM-11.2641 54.6054L-1.74207 59.7083L54.7881 -45.7777L45.266 -50.8806L-11.2641 54.6054ZM-1.74207 -45.7777L-11.2641 -40.6748L45.266 64.8112L54.7881 59.7083L-1.74207 -45.7777ZM45.266 -40.6748L35.7439 -45.7777L-20.7862 59.7083L-11.2641 64.8112L45.266 -40.6748ZM35.7439 59.7083L45.266 54.6054L-11.2641 -50.8806L-20.7862 -45.7777L35.7439 59.7083Z" fill="#354759" mask="url(#path-5-inside-3_1379_23)"/>
</g>
<defs>
<filter id="filter0_d_1379_23" x="0" y="0" width="34" height="34" filterUnits="userSpaceOnUse" color-interpolation-filters="sRGB">
<feFlood flood-opacity="0" result="BackgroundImageFix"/>
<feColorMatrix in="SourceAlpha" type="matrix" values="0 0 0 0 0 0 0 0 0 0 0 0 0 0 0 0 0 0 127 0" result="hardAlpha"/>
<feOffset dy="4"/>
<feGaussianBlur stdDeviation="2"/>
<feComposite in2="hardAlpha" operator="out"/>
<feColorMatrix type="matrix" values="0 0 0 0 0 0 0 0 0 0 0 0 0 0 0 0 0 0 0.25 0"/>
<feBlend mode="normal" in2="BackgroundImageFix" result="effect1_dropShadow_1379_23"/>
<feBlend mode="normal" in="SourceGraphic" in2="effect1_dropShadow_1379_23" result="shape"/>
</filter>
</defs>
</svg>
