<svg width="34" height="34" viewBox="0 0 34 34" fill="none" xmlns="http://www.w3.org/2000/svg">
<g filter="url(#filter0_d_1379_54)">
<mask id="path-1-inside-1_1379_54" fill="white">
<path fill-rule="evenodd" clip-rule="evenodd" d="M7.66928 4.82114C6.65391 6.86763 6 9.75849 6 13C6 16.2415 6.65391 19.1324 7.66928 21.1789C8.72689 23.3105 9.98176 24.186 11 24.186C12.0182 24.186 13.2731 23.3105 14.3307 21.1789C15.3461 19.1324 16 16.2415 16 13C16 9.75849 15.3461 6.86763 14.3307 4.82114C13.2731 2.6895 12.0182 1.81395 11 1.81395C9.98176 1.81395 8.72689 2.6895 7.66928 4.82114ZM14.6519 1.81395C15.2375 2.46207 15.7397 3.24074 16.1545 4.07675C17.3108 6.40706 18 9.56273 18 13C18 16.4373 17.3108 19.5929 16.1545 21.9232C15.7397 22.7593 15.2375 23.538 14.6519 24.186H23C24.0183 24.186 25.2731 23.3105 26.3307 21.1789C27.3461 19.1324 28 16.2415 28 13C28 9.75849 27.3461 6.86763 26.3307 4.82114C25.2731 2.6895 24.0183 1.81395 23 1.81395H14.6519ZM11 0H23C25.2955 0 27.0407 1.83157 28.1545 4.07675C29.3108 6.40706 30 9.56273 30 13C30 16.4373 29.3108 19.5929 28.1545 21.9232C27.0407 24.1684 25.2955 26 23 26H11C8.70453 26 6.95939 24.1684 5.84544 21.9232C4.68924 19.5929 4 16.4373 4 13C4 9.56273 4.68924 6.40706 5.84544 4.07675C6.95939 1.83157 8.70453 0 11 0ZM10.5559 8.08934C10.219 9.31159 10 11.0482 10 13C10 14.9518 10.219 16.6884 10.5559 17.9106C10.6991 18.4299 10.8539 18.8205 11 19.0861C11.1461 18.8205 11.3009 18.4299 11.4441 17.9106C11.7278 16.8814 11.9279 15.4872 11.984 13.907H11.6667C11.1144 13.907 10.6667 13.5009 10.6667 13C10.6667 12.4991 11.1144 12.093 11.6667 12.093H11.984C11.9279 10.5128 11.7278 9.11867 11.4441 8.08934C11.3009 7.5701 11.1461 7.17947 11 6.91397C10.8539 7.17947 10.6991 7.5701 10.5559 8.08934ZM11.2315 6.59214C11.2315 6.59214 11.2276 6.59612 11.2195 6.60119C11.2273 6.59419 11.2315 6.59214 11.2315 6.59214ZM10.7805 6.60119C10.7724 6.59612 10.7685 6.59214 10.7685 6.59214C10.7685 6.59214 10.7727 6.59419 10.7805 6.60119ZM10.7685 19.4079C10.7685 19.4079 10.7724 19.4039 10.7805 19.3988C10.7727 19.4058 10.7685 19.4079 10.7685 19.4079ZM11.2195 19.3988C11.2276 19.4039 11.2315 19.4079 11.2315 19.4079C11.2315 19.4079 11.2273 19.4058 11.2195 19.3988ZM9.36064 5.85289C9.63052 5.43876 10.152 4.83721 11 4.83721C11.848 4.83721 12.3695 5.43876 12.6394 5.85289C12.9488 6.32772 13.1928 6.95444 13.3844 7.64939C13.7713 9.05322 14 10.9445 14 13C14 15.0555 13.7713 16.9468 13.3844 18.3506C13.1928 19.0455 12.9488 19.6723 12.6394 20.1471C12.3695 20.5613 11.848 21.1628 11 21.1628C10.152 21.1628 9.63052 20.5613 9.36064 20.1471C9.0512 19.6723 8.8072 19.0455 8.61564 18.3506C8.22869 16.9468 8 15.0555 8 13C8 10.9445 8.22869 9.05322 8.61564 7.64939C8.8072 6.95444 9.0512 6.32772 9.36064 5.85289Z"/>
</mask>
<path d="M7.66928 4.82114L37.5293 19.6363L37.5294 19.6362L7.66928 4.82114ZM7.66928 21.1789L-22.1908 35.994L-22.1908 35.994L7.66928 21.1789ZM14.3307 21.1789L-15.5291 6.36331L-15.5294 6.36378L14.3307 21.1789ZM14.3307 4.82114L-15.5294 19.6362L-15.5291 19.6368L14.3307 4.82114ZM14.6519 1.81395V-31.5194H-60.3909L-10.081 24.1612L14.6519 1.81395ZM16.1545 4.07675L-13.7054 18.8922L-13.7051 18.8927L16.1545 4.07675ZM16.1545 21.9232L-13.7052 7.10734L-13.7061 7.10917L16.1545 21.9232ZM14.6519 24.186L-10.0801 1.8379L-60.3946 57.5194H14.6519V24.186ZM26.3307 21.1789L-3.52887 6.36269L-3.52948 6.36393L26.3307 21.1789ZM26.3307 4.82114L-3.52948 19.6361L-3.52883 19.6374L26.3307 4.82114ZM28.1545 4.07675L-1.70596 18.891L-1.70513 18.8927L28.1545 4.07675ZM28.1545 21.9232L-1.70516 7.10734L-1.706 7.10902L28.1545 21.9232ZM5.84544 21.9232L35.7055 7.10817L35.7055 7.10803L5.84544 21.9232ZM5.84544 4.07675L35.7054 18.892L35.7055 18.8918L5.84544 4.07675ZM10.5559 8.08934L42.6908 16.9471L42.6909 16.9468L10.5559 8.08934ZM10.5559 17.9106L42.6911 9.05368L42.6908 9.05275L10.5559 17.9106ZM11 19.0861L-18.2044 35.1551L11 88.232L40.2044 35.1551L11 19.0861ZM11.4441 17.9106L-20.6906 9.05195L-20.6911 9.05368L11.4441 17.9106ZM11.984 13.907L45.2964 15.0898L46.5219 -19.4264H11.984V13.907ZM11.984 12.093V45.4264H46.5219L45.2964 10.9103L11.984 12.093ZM11.4441 8.08934L-20.6909 16.9468L-20.6908 16.9472L11.4441 8.08934ZM11 6.91397L40.2028 -9.1579L11 -62.2199L-18.2028 -9.1579L11 6.91397ZM11.2315 6.59214L35.1752 29.7828L-3.69022 -23.2148L11.2315 6.59214ZM11.2195 6.60119L-10.9843 -18.2605L28.9381 34.8352L11.2195 6.60119ZM10.7805 6.60119L-6.93813 34.8352L32.9843 -18.2605L10.7805 6.60119ZM10.7685 6.59214L25.6902 -23.2148L-13.1752 29.7828L10.7685 6.59214ZM10.7685 19.4079L-13.2087 -3.7482L25.687 49.2164L10.7685 19.4079ZM10.7805 19.3988L33.0056 44.2414L-6.93813 -8.83527L10.7805 19.3988ZM11.2195 19.3988L28.9381 -8.83527L-11.0056 44.2414L11.2195 19.3988ZM11.2315 19.4079L-3.68697 49.2164L35.2087 -3.7482L11.2315 19.4079ZM9.36064 5.85289L-18.5659 -12.3465L-18.566 -12.3464L9.36064 5.85289ZM12.6394 5.85289L40.566 -12.3464L40.5659 -12.3465L12.6394 5.85289ZM13.3844 7.64939L45.5193 -1.20816L45.5192 -1.20845L13.3844 7.64939ZM13.3844 18.3506L-18.7505 9.49257L-18.7506 9.49314L13.3844 18.3506ZM12.6394 20.1471L-15.2862 1.94618L-15.2884 1.94959L12.6394 20.1471ZM9.36064 20.1471L37.2884 1.94959L37.2862 1.94618L9.36064 20.1471ZM8.61564 18.3506L40.7506 9.49314L40.7505 9.49257L8.61564 18.3506ZM8.61564 7.64939L-23.5192 -1.20845L-23.5193 -1.20816L8.61564 7.64939ZM-22.1908 -9.99403C-25.942 -2.43334 -27.3333 5.7406 -27.3333 13H39.3333C39.3333 13.5856 39.2776 14.3507 39.0765 15.3089C38.8885 16.2045 38.4781 17.724 37.5293 19.6363L-22.1908 -9.99403ZM-27.3333 13C-27.3333 20.2595 -25.942 28.4333 -22.1908 35.994L37.5294 6.36378C38.4781 8.276 38.8885 9.79543 39.0765 10.6911C39.2776 11.6493 39.3333 12.4144 39.3333 13H-27.3333ZM-22.1908 35.994C-19.3273 41.7653 -9.45011 57.5194 11 57.5194V-9.14729C20.292 -9.14729 27.0847 -5.17866 30.8892 -1.95729C34.6826 1.25466 36.6363 4.5639 37.5294 6.36378L-22.1908 35.994ZM11 57.5194C31.4501 57.5194 41.3273 41.7653 44.1908 35.994L-15.5294 6.36378C-14.6363 4.5639 -12.6826 1.25466 -8.8892 -1.95729C-5.08467 -5.17866 1.70797 -9.14729 11 -9.14729V57.5194ZM44.1906 35.9944C47.9422 28.4333 49.3333 20.2591 49.3333 13H-17.3333C-17.3333 12.4146 -17.2776 11.6495 -17.0765 10.6912C-16.8885 9.79549 -16.4781 8.27583 -15.5291 6.36331L44.1906 35.9944ZM49.3333 13C49.3333 5.74099 47.9422 -2.43327 44.1905 -9.9945L-15.5291 19.6368C-16.4781 17.7242 -16.8886 16.2045 -17.0765 15.3088C-17.2776 14.3506 -17.3333 13.5855 -17.3333 13H49.3333ZM44.1908 -9.99396C41.3274 -15.7651 31.4502 -31.5194 11 -31.5194V35.1473C1.70785 35.1473 -5.08481 31.1786 -8.88928 27.9572C-12.6826 24.7453 -14.6364 21.4361 -15.5294 19.6362L44.1908 -9.99396ZM11 -31.5194C-9.45023 -31.5194 -19.3274 -15.7651 -22.1908 -9.99396L37.5294 19.6362C36.6364 21.4361 34.6826 24.7453 30.8893 27.9572C27.0848 31.1786 20.2922 35.1473 11 35.1473V-31.5194ZM-10.081 24.1612C-11.9639 22.0773 -13.0762 20.1603 -13.7054 18.8922L46.0145 -10.7387C44.5556 -13.6789 42.4388 -17.1531 39.3847 -20.5333L-10.081 24.1612ZM-13.7051 18.8927C-14.5736 17.1423 -14.9448 15.7653 -15.1119 14.9689C-15.2893 14.124 -15.3333 13.4733 -15.3333 13H51.3333C51.3333 5.54645 49.9073 -2.89307 46.0142 -10.7392L-13.7051 18.8927ZM-15.3333 13C-15.3333 12.5267 -15.2893 11.876 -15.1119 11.031C-14.9448 10.2345 -14.5736 8.85753 -13.7052 7.10734L46.0142 36.7391C49.9073 28.8931 51.3333 20.4538 51.3333 13H-15.3333ZM-13.7061 7.10917C-13.0766 5.84033 -11.9639 3.92257 -10.0801 1.8379L39.3839 46.5342C42.4388 43.1534 44.5561 39.6783 46.0151 36.7372L-13.7061 7.10917ZM14.6519 57.5194H23V-9.14729H14.6519V57.5194ZM23 57.5194C43.4506 57.5194 53.3277 41.7646 56.1908 35.9938L-3.52948 6.36393C-2.63661 4.56431 -0.68297 1.25505 3.11045 -1.957C6.91519 -5.17863 13.7079 -9.14729 23 -9.14729V57.5194ZM56.1902 35.9951C59.9422 28.4335 61.3333 20.259 61.3333 13H-5.33333C-5.33333 12.4146 -5.27763 11.6494 -5.0765 10.6911C-4.88849 9.79523 -4.47794 8.2754 -3.52887 6.36269L56.1902 35.9951ZM61.3333 13C61.3333 5.74104 59.9422 -2.43353 56.1902 -9.99512L-3.52883 19.6374C-4.47795 17.7246 -4.8885 16.2047 -5.0765 15.3089C-5.27762 14.3506 -5.33333 13.5855 -5.33333 13H61.3333ZM56.1908 -9.99381C53.3278 -15.7644 43.4508 -31.5194 23 -31.5194V35.1473C13.7078 35.1473 6.91504 31.1785 3.11037 27.9569C-0.683006 24.7449 -2.63662 21.4357 -3.52948 19.6361L56.1908 -9.99381ZM23 -31.5194H14.6519V35.1473H23V-31.5194ZM11 33.3333H23V-33.3333H11V33.3333ZM23 33.3333C14.5991 33.3333 8.1816 29.8055 4.33945 26.5154C0.820893 23.5024 -0.934268 20.4465 -1.70596 18.891L58.015 -10.7375C55.2539 -16.3031 44.9446 -33.3333 23 -33.3333V33.3333ZM-1.70513 18.8927C-2.57363 17.1423 -2.94483 15.7653 -3.11195 14.9689C-3.28926 14.124 -3.33333 13.4733 -3.33333 13H63.3333C63.3333 5.54645 61.9073 -2.89307 58.0142 -10.7392L-1.70513 18.8927ZM-3.33333 13C-3.33333 12.5267 -3.28926 11.876 -3.11193 11.031C-2.94479 10.2345 -2.57358 8.85753 -1.70516 7.10734L58.0142 36.7391C61.9073 28.8931 63.3333 20.4538 63.3333 13H-3.33333ZM-1.706 7.10902C-0.93434 5.55362 0.820771 2.49773 4.33927 -0.515243C8.18135 -3.80531 14.5989 -7.33333 23 -7.33333V59.3333C44.9448 59.3333 55.2541 42.3027 58.0151 36.7374L-1.706 7.10902ZM23 -7.33333H11V59.3333H23V-7.33333ZM11 -7.33333C19.4012 -7.33333 25.8188 -3.80524 29.6608 -0.515201C33.1792 2.49768 34.9341 5.55334 35.7055 7.10817L-24.0147 36.7382C-21.2541 42.3023 -10.945 59.3333 11 59.3333V-7.33333ZM35.7055 7.10803C36.5737 8.85788 36.9448 10.2345 37.1119 11.031C37.2892 11.8759 37.3333 12.5265 37.3333 13H-29.3333C-29.3333 20.4541 -27.9071 28.8931 -24.0146 36.7384L35.7055 7.10803ZM37.3333 13C37.3333 13.4735 37.2892 14.1241 37.112 14.9689C36.9449 15.7652 36.5737 17.142 35.7054 18.892L-24.0146 -10.7385C-27.9071 -2.89302 -29.3333 5.54607 -29.3333 13H37.3333ZM35.7055 18.8918C34.9341 20.4467 33.179 23.5024 29.6606 26.5153C25.8185 29.8054 19.401 33.3333 11 33.3333V-33.3333C-10.9447 -33.3333 -21.2539 -16.3027 -24.0146 -10.7383L35.7055 18.8918ZM-21.5789 -0.768443C-22.9158 4.08148 -23.3333 8.93763 -23.3333 13H43.3333C43.3333 13.2435 43.3212 13.6126 43.2607 14.1311C43.2079 14.584 43.0707 15.569 42.6908 16.9471L-21.5789 -0.768443ZM-23.3333 13C-23.3333 17.0624 -22.9158 21.9185 -21.5789 26.7685L42.6908 9.05275C43.0707 10.4309 43.2079 11.4158 43.2607 11.8689C43.3212 12.3874 43.3333 12.7565 43.3333 13H-23.3333ZM-21.5792 26.7675C-21.0122 28.8247 -20.0132 31.8676 -18.2044 35.1551L40.2044 3.01699C41.0237 4.50607 41.5667 5.78622 41.9112 6.68698C42.2698 7.62467 42.5189 8.42905 42.6911 9.05368L-21.5792 26.7675ZM40.2044 35.1551C42.0132 31.8676 43.0122 28.8247 43.5792 26.7675L-20.6911 9.05368C-20.5189 8.42905 -20.2698 7.62467 -19.9112 6.68698C-19.5667 5.78622 -19.0237 4.50607 -18.2044 3.01699L40.2044 35.1551ZM43.5787 26.7693C44.7299 22.5935 45.1752 18.5022 45.2964 15.0898L-21.3283 12.7242C-21.3196 12.4781 -21.2955 12.1016 -21.225 11.5875C-21.1603 11.1158 -21.0171 10.2365 -20.6906 9.05195L43.5787 26.7693ZM11.984 -19.4264H11.6667V47.2403H11.984V-19.4264ZM11.6667 -19.4264C26.3871 -19.4264 44 -7.89608 44 13H-22.6667C-22.6667 34.8979 -4.15835 47.2403 11.6667 47.2403V-19.4264ZM44 13C44 33.8961 26.3871 45.4264 11.6667 45.4264V-21.2403C-4.15835 -21.2403 -22.6667 -8.89787 -22.6667 13H44ZM11.6667 45.4264H11.984V-21.2403H11.6667V45.4264ZM45.2964 10.9103C45.1752 7.49734 44.7298 3.40659 43.5789 -0.768554L-20.6908 16.9472C-21.0171 15.7633 -21.1603 14.8844 -21.225 14.4125C-21.2955 13.8984 -21.3196 13.5218 -21.3283 13.2758L45.2964 10.9103ZM43.579 -0.76817C43.0124 -2.82379 42.0133 -5.86835 40.2028 -9.1579L-18.2028 22.9858C-19.0232 21.4952 -19.5666 20.214 -19.911 19.3133C-20.2697 18.3755 -20.5188 17.5712 -20.6909 16.9468L43.579 -0.76817ZM-18.2028 -9.1579C-20.0133 -5.86835 -21.0124 -2.82379 -21.579 -0.76817L42.6909 16.9468C42.5188 17.5712 42.2697 18.3755 41.911 19.3133C41.5666 20.214 41.0232 21.4952 40.2028 22.9858L-18.2028 -9.1579ZM11.2315 6.59214C-12.7123 -16.5986 -12.7076 -16.6034 -12.703 -16.6082C-12.7014 -16.6098 -12.6967 -16.6146 -12.6936 -16.6178C-12.6874 -16.6242 -12.6812 -16.6307 -12.6749 -16.6371C-12.6624 -16.6499 -12.6499 -16.6628 -12.6374 -16.6756C-12.6123 -16.7013 -12.5872 -16.7271 -12.5619 -16.7528C-12.5113 -16.8044 -12.4604 -16.856 -12.409 -16.9077C-12.3062 -17.0111 -12.2017 -17.1148 -12.0955 -17.2189C-11.883 -17.427 -11.6635 -17.6365 -11.4368 -17.8468C-10.9834 -18.2673 -10.5 -18.6922 -9.98533 -19.1168C-8.95648 -19.9657 -7.79671 -20.8185 -6.49911 -21.6329L28.9381 34.8352C30.2438 34.0158 31.4096 33.1584 32.4424 32.3063C32.959 31.88 33.4439 31.4538 33.8982 31.0325C34.1255 30.8217 34.3453 30.6119 34.558 30.4035C34.6644 30.2994 34.7689 30.1955 34.8718 30.092C34.9232 30.0403 34.9742 29.9887 35.0248 29.9371C35.0501 29.9114 35.0752 29.8856 35.1003 29.8599C35.1128 29.8471 35.1253 29.8342 35.1378 29.8214C35.1441 29.8149 35.1503 29.8085 35.1565 29.8021C35.1596 29.7989 35.1643 29.7941 35.1659 29.7925C35.1705 29.7877 35.1752 29.7828 11.2315 6.59214ZM33.4233 31.4629C32.481 32.3045 31.4098 33.1643 30.2016 34.0008C29.5969 34.4194 28.9574 34.8325 28.2824 35.2344C27.9449 35.4353 27.5986 35.6333 27.2437 35.8277C27.0662 35.9249 26.8866 36.0212 26.7048 36.1165C26.6139 36.1641 26.5225 36.2115 26.4306 36.2586C26.3846 36.2821 26.3385 36.3056 26.2922 36.329C26.2691 36.3408 26.246 36.3524 26.2228 36.3641C26.2112 36.37 26.1996 36.3758 26.188 36.3816C26.1822 36.3845 26.1735 36.3889 26.1706 36.3904C26.1618 36.3947 26.1531 36.3991 11.2315 6.59214C-3.69022 -23.2148 -3.69894 -23.2105 -3.70765 -23.2061C-3.71056 -23.2046 -3.71927 -23.2003 -3.72507 -23.1973C-3.73668 -23.1915 -3.74828 -23.1857 -3.75988 -23.1798C-3.78306 -23.1682 -3.80622 -23.1565 -3.82934 -23.1448C-3.87558 -23.1213 -3.9217 -23.0979 -3.96768 -23.0743C-4.05965 -23.0272 -4.15109 -22.9798 -4.24201 -22.9321C-4.42385 -22.8368 -4.60356 -22.7405 -4.78116 -22.6432C-5.13638 -22.4487 -5.48297 -22.2504 -5.82097 -22.0492C-6.49701 -21.6467 -7.13807 -21.2327 -7.74475 -20.8127C-8.95702 -19.9735 -10.0341 -19.1091 -10.9843 -18.2605L33.4233 31.4629ZM28.4991 -21.6329C29.7967 -20.8185 30.9565 -19.9657 31.9853 -19.1168C32.5 -18.6922 32.9834 -18.2673 33.4368 -17.8468C33.6635 -17.6365 33.883 -17.427 34.0955 -17.2189C34.2017 -17.1148 34.3062 -17.0111 34.409 -16.9077C34.4604 -16.856 34.5113 -16.8044 34.5619 -16.7528C34.5872 -16.7271 34.6123 -16.7013 34.6374 -16.6756C34.6499 -16.6628 34.6624 -16.6499 34.6749 -16.6371C34.6812 -16.6307 34.6874 -16.6242 34.6936 -16.6178C34.6967 -16.6146 34.7014 -16.6098 34.703 -16.6082C34.7076 -16.6034 34.7123 -16.5986 10.7685 6.59214C-13.1752 29.7828 -13.1705 29.7877 -13.1659 29.7925C-13.1643 29.7941 -13.1596 29.7989 -13.1565 29.8021C-13.1503 29.8085 -13.1441 29.8149 -13.1378 29.8214C-13.1253 29.8342 -13.1128 29.8471 -13.1003 29.8599C-13.0752 29.8856 -13.0501 29.9114 -13.0248 29.9371C-12.9742 29.9887 -12.9232 30.0403 -12.8718 30.092C-12.7689 30.1955 -12.6644 30.2994 -12.558 30.4035C-12.3453 30.6119 -12.1255 30.8217 -11.8982 31.0325C-11.4439 31.4538 -10.959 31.88 -10.4424 32.3063C-9.40956 33.1584 -8.24382 34.0158 -6.93813 34.8352L28.4991 -21.6329ZM10.7685 6.59214C-4.15313 36.3991 -4.16185 36.3947 -4.17056 36.3904C-4.17346 36.3889 -4.18217 36.3845 -4.18798 36.3816C-4.19959 36.3758 -4.21119 36.37 -4.22278 36.3641C-4.24597 36.3524 -4.26912 36.3408 -4.29224 36.329C-4.33848 36.3056 -4.38459 36.2821 -4.43056 36.2586C-4.52251 36.2115 -4.61393 36.1641 -4.70482 36.1165C-4.88659 36.0212 -5.06622 35.9249 -5.24369 35.8277C-5.59865 35.6333 -5.94486 35.4353 -6.28235 35.2344C-6.95738 34.8325 -7.59692 34.4194 -8.20159 34.0008C-9.40984 33.1643 -10.481 32.3045 -11.4233 31.4629L32.9843 -18.2605C32.0341 -19.1091 30.957 -19.9735 29.7447 -20.8127C29.1381 -21.2327 28.497 -21.6467 27.821 -22.0492C27.483 -22.2504 27.1364 -22.4487 26.7812 -22.6432C26.6036 -22.7405 26.4238 -22.8368 26.242 -22.9321C26.1511 -22.9798 26.0596 -23.0272 25.9677 -23.0743C25.9217 -23.0979 25.8756 -23.1213 25.8293 -23.1448C25.8062 -23.1565 25.7831 -23.1682 25.7599 -23.1798C25.7483 -23.1857 25.7367 -23.1915 25.7251 -23.1973C25.7193 -23.2003 25.7106 -23.2046 25.7077 -23.2061C25.6989 -23.2105 25.6902 -23.2148 10.7685 6.59214ZM10.7685 19.4079C34.7458 42.5639 34.7411 42.5687 34.7364 42.5736C34.7349 42.5752 34.7302 42.58 34.7271 42.5833C34.7208 42.5897 34.7146 42.5962 34.7083 42.6026C34.6958 42.6156 34.6833 42.6285 34.6707 42.6414C34.6456 42.6673 34.6203 42.6932 34.595 42.7191C34.5443 42.7709 34.4931 42.8228 34.4416 42.8748C34.3385 42.9788 34.2336 43.0832 34.127 43.1879C33.9139 43.3973 33.6935 43.6081 33.4658 43.8198C33.0107 44.243 32.525 44.6707 32.0076 45.0983C30.9734 45.9531 29.8063 46.8125 28.4991 47.6328L-6.93813 -8.83527C-8.25341 -8.00985 -9.42652 -7.14597 -10.4647 -6.28791C-10.984 -5.85867 -11.4711 -5.42957 -11.9273 -5.00549C-12.1555 -4.79337 -12.3762 -4.58222 -12.5896 -4.37259C-12.6963 -4.26777 -12.8012 -4.16329 -12.9044 -4.05921C-12.956 -4.00717 -13.0071 -3.95523 -13.0578 -3.9034C-13.0832 -3.87748 -13.1085 -3.85158 -13.1336 -3.82572C-13.1462 -3.81278 -13.1587 -3.79986 -13.1712 -3.78694C-13.1775 -3.78048 -13.1837 -3.77402 -13.19 -3.76756C-13.1931 -3.76433 -13.1978 -3.75949 -13.1994 -3.75788C-13.204 -3.75304 -13.2087 -3.7482 10.7685 19.4079ZM-11.4446 -5.44383C-10.5005 -6.28852 -9.42648 -7.152 -8.21424 -7.99204C-7.60757 -8.41244 -6.96571 -8.82735 -6.28804 -9.23098C-5.94922 -9.43278 -5.6016 -9.63168 -5.24515 -9.82693C-5.06693 -9.92455 -4.88654 -10.0212 -4.70398 -10.1169C-4.61271 -10.1648 -4.52089 -10.2123 -4.42854 -10.2596C-4.38236 -10.2833 -4.33605 -10.3069 -4.28961 -10.3304C-4.26638 -10.3422 -4.24313 -10.3539 -4.21984 -10.3656C-4.2082 -10.3715 -4.19654 -10.3773 -4.18488 -10.3832C-4.17905 -10.3861 -4.1703 -10.3905 -4.16738 -10.392C-4.15863 -10.3963 -4.14987 -10.4007 10.7685 19.4079C25.687 49.2164 25.6957 49.2121 25.7045 49.2077C25.7074 49.2062 25.7161 49.2018 25.722 49.1989C25.7336 49.193 25.7453 49.1872 25.7569 49.1813C25.7802 49.1696 25.8035 49.1578 25.8267 49.1461C25.8732 49.1226 25.9195 49.099 25.9657 49.0753C26.058 49.028 26.1499 48.9804 26.2412 48.9326C26.4238 48.8369 26.6043 48.7401 26.7826 48.6424C27.1393 48.447 27.4873 48.2479 27.8267 48.0458C28.5053 47.6416 29.1487 47.2257 29.7574 46.8039C30.9737 45.9611 32.0536 45.0931 33.0056 44.2414L-11.4446 -5.44383ZM-6.49911 47.6328C-7.8063 46.8125 -8.97344 45.9531 -10.0076 45.0983C-10.525 44.6707 -11.0107 44.243 -11.4658 43.8198C-11.6935 43.6081 -11.9139 43.3973 -12.127 43.1879C-12.2336 43.0832 -12.3385 42.9788 -12.4416 42.8748C-12.4931 42.8228 -12.5443 42.7709 -12.595 42.7191C-12.6203 42.6932 -12.6456 42.6673 -12.6707 42.6414C-12.6833 42.6285 -12.6958 42.6156 -12.7083 42.6026C-12.7146 42.5962 -12.7208 42.5897 -12.7271 42.5833C-12.7302 42.58 -12.7349 42.5752 -12.7364 42.5736C-12.7411 42.5687 -12.7458 42.5639 11.2315 19.4079C35.2087 -3.7482 35.204 -3.75304 35.1994 -3.75788C35.1978 -3.75949 35.1931 -3.76433 35.19 -3.76756C35.1837 -3.77402 35.1775 -3.78048 35.1712 -3.78694C35.1587 -3.79986 35.1462 -3.81278 35.1336 -3.82572C35.1085 -3.85158 35.0832 -3.87748 35.0578 -3.9034C35.0071 -3.95523 34.956 -4.00717 34.9044 -4.05921C34.8012 -4.16329 34.6963 -4.26777 34.5896 -4.37259C34.3762 -4.58222 34.1555 -4.79337 33.9273 -5.00549C33.4711 -5.42957 32.984 -5.85867 32.4647 -6.28791C31.4265 -7.14597 30.2534 -8.00985 28.9381 -8.83527L-6.49911 47.6328ZM11.2315 19.4079C26.1499 -10.4007 26.1586 -10.3963 26.1674 -10.392C26.1703 -10.3905 26.1791 -10.3861 26.1849 -10.3832C26.1965 -10.3773 26.2082 -10.3715 26.2198 -10.3656C26.2431 -10.3539 26.2664 -10.3422 26.2896 -10.3304C26.3361 -10.3069 26.3824 -10.2833 26.4285 -10.2596C26.5209 -10.2123 26.6127 -10.1648 26.704 -10.1169C26.8865 -10.0212 27.0669 -9.92455 27.2451 -9.82693C27.6016 -9.63168 27.9492 -9.43278 28.288 -9.23098C28.9657 -8.82735 29.6076 -8.41244 30.2142 -7.99204C31.4265 -7.152 32.5005 -6.28852 33.4446 -5.44383L-11.0056 44.2414C-10.0536 45.0931 -8.97365 45.9611 -7.7574 46.8039C-7.14872 47.2257 -6.50535 47.6416 -5.82666 48.0458C-5.48733 48.2479 -5.13933 48.447 -4.78263 48.6424C-4.60428 48.7401 -4.4238 48.8369 -4.24117 48.9326C-4.14986 48.9804 -4.05802 49.028 -3.96565 49.0753C-3.91947 49.099 -3.87315 49.1226 -3.8267 49.1461C-3.80348 49.1578 -3.78022 49.1696 -3.75693 49.1813C-3.74529 49.1872 -3.73364 49.193 -3.72198 49.1989C-3.71615 49.2018 -3.7074 49.2062 -3.70448 49.2077C-3.69572 49.2121 -3.68697 49.2164 11.2315 19.4079ZM37.2872 24.0523C35.9574 26.0929 27.7777 38.1705 11 38.1705V-28.4961C-7.47362 -28.4961 -16.6963 -15.2154 -18.5659 -12.3465L37.2872 24.0523ZM11 38.1705C-5.77768 38.1705 -13.9574 26.0929 -15.2872 24.0523L40.5659 -12.3465C38.6963 -15.2154 29.4736 -28.4961 11 -28.4961V38.1705ZM-15.2873 24.0522C-16.5589 22.1009 -17.3447 20.3943 -17.8058 19.2644C-18.2819 18.0978 -18.5761 17.1401 -18.7505 16.5072L45.5192 -1.20845C44.8912 -3.4868 43.5283 -7.80078 40.566 -12.3464L-15.2873 24.0522ZM-18.7506 16.507C-19.1005 15.2376 -19.225 14.3419 -19.2718 13.9405C-19.3248 13.486 -19.3333 13.1808 -19.3333 13H47.3333C47.3333 8.83359 46.9061 3.82291 45.5193 -1.20816L-18.7506 16.507ZM-19.3333 13C-19.3333 12.8192 -19.3248 12.514 -19.2718 12.0595C-19.225 11.6581 -19.1005 10.7623 -18.7505 9.49257L45.5192 27.2085C46.9061 22.1772 47.3333 17.1662 47.3333 13H-19.3333ZM-18.7506 9.49314C-18.5762 8.8605 -18.2822 7.90276 -17.806 6.73606C-17.3449 5.6061 -16.5588 3.89866 -15.2862 1.94618L40.5649 38.348C43.5286 33.8008 44.8917 29.4852 45.5193 27.208L-18.7506 9.49314ZM-15.2884 1.94959C-13.9568 -0.0940785 -5.77703 -12.1705 11 -12.1705V54.4961C29.473 54.4961 38.6958 41.2166 40.5672 38.3446L-15.2884 1.94959ZM11 -12.1705C27.777 -12.1705 35.9568 -0.0940785 37.2884 1.94959L-18.5672 38.3446C-16.6958 41.2166 -7.47297 54.4961 11 54.4961V-12.1705ZM37.2862 1.94618C38.5588 3.89866 39.3449 5.6061 39.806 6.73606C40.2822 7.90276 40.5762 8.8605 40.7506 9.49314L-23.5193 27.208C-22.8917 29.4852 -21.5286 33.8008 -18.5649 38.348L37.2862 1.94618ZM40.7505 9.49257C41.1005 10.7623 41.225 11.6581 41.2718 12.0595C41.3248 12.514 41.3333 12.8192 41.3333 13H-25.3333C-25.3333 17.1662 -24.9061 22.1772 -23.5192 27.2085L40.7505 9.49257ZM41.3333 13C41.3333 13.1808 41.3248 13.486 41.2718 13.9405C41.225 14.3419 41.1005 15.2376 40.7506 16.507L-23.5193 -1.20816C-24.9061 3.82291 -25.3333 8.83359 -25.3333 13H41.3333ZM40.7505 16.5072C40.5761 17.1401 40.2819 18.0978 39.8058 19.2644C39.3447 20.3943 38.5589 22.1009 37.2873 24.0522L-18.566 -12.3464C-21.5283 -7.80078 -22.8912 -3.4868 -23.5192 -1.20845L40.7505 16.5072Z" fill="#354759" mask="url(#path-1-inside-1_1379_54)"/>
</g>
<defs>
<filter id="filter0_d_1379_54" x="0" y="0" width="34" height="34" filterUnits="userSpaceOnUse" color-interpolation-filters="sRGB">
<feFlood flood-opacity="0" result="BackgroundImageFix"/>
<feColorMatrix in="SourceAlpha" type="matrix" values="0 0 0 0 0 0 0 0 0 0 0 0 0 0 0 0 0 0 127 0" result="hardAlpha"/>
<feOffset dy="4"/>
<feGaussianBlur stdDeviation="2"/>
<feComposite in2="hardAlpha" operator="out"/>
<feColorMatrix type="matrix" values="0 0 0 0 0 0 0 0 0 0 0 0 0 0 0 0 0 0 0.25 0"/>
<feBlend mode="normal" in2="BackgroundImageFix" result="effect1_dropShadow_1379_54"/>
<feBlend mode="normal" in="SourceGraphic" in2="effect1_dropShadow_1379_54" result="shape"/>
</filter>
</defs>
</svg>
