<svg width="26" height="26" viewBox="0 0 26 26" fill="none" xmlns="http://www.w3.org/2000/svg">
<g clip-path="url(#clip0_1474_37)">
<g filter="url(#filter0_d_1474_37)">
<path d="M24.375 1.625H14.1651C11.5294 1.625 8.99844 2.87381 7.39497 4.96559L2.16694 11.7841C1.03147 13.2653 0.40625 15.1084 0.40625 16.9752V23.1562C0.40625 23.8282 0.953062 24.375 1.625 24.375H24.375C25.0469 24.375 25.5938 23.8282 25.5938 23.1562V2.84375C25.5938 2.17181 25.0469 1.625 24.375 1.625ZM2.81166 12.2785L8.03969 5.46C9.49041 3.56728 11.7804 2.4375 14.1651 2.4375H24.375C24.5988 2.4375 24.7812 2.61991 24.7812 2.84375V19.5H1.21875V16.9752C1.21875 15.2864 1.78466 13.6183 2.81166 12.2785ZM24.375 23.5625H1.625C1.40116 23.5625 1.21875 23.3801 1.21875 23.1562V21.9375H2.84375V21.125H1.21875V20.3125H24.7812V21.125H3.25V21.9375H24.7812V23.1562C24.7812 23.3801 24.5988 23.5625 24.375 23.5625Z" fill="#354759"/>
</g>
<path d="M23.1562 15.4375H19.9062C19.4582 15.4375 19.0938 15.8019 19.0938 16.25V17.0625C19.0938 17.5106 19.4582 17.875 19.9062 17.875H23.1562C23.6043 17.875 23.9688 17.5106 23.9688 17.0625V16.25C23.9688 15.8019 23.6043 15.4375 23.1562 15.4375ZM19.9062 16.25H21.5312V17.0625H19.9062V16.25ZM23.1562 17.0625H22.3438V16.25H23.1562V17.0625Z" fill="#354759"/>
<path d="M5.28125 14.625H7.71875H23.9688V3.25H14.185C12.038 3.25 9.98156 4.27091 8.684 5.98122L5.20041 10.5706C4.56666 10.6133 4.0625 11.1369 4.0625 11.7812V13.4062C4.0625 14.0782 4.60931 14.625 5.28125 14.625ZM9.33075 6.47238C10.476 4.96316 12.2907 4.0625 14.185 4.0625H23.1562V13.8125H9.33319C9.59116 13.4721 9.75 13.0528 9.75 12.5938V10.5625H6.22659L9.33075 6.47238ZM4.875 11.7812C4.875 11.5574 5.05741 11.375 5.28125 11.375H8.9375V12.5938C8.9375 13.2657 8.39069 13.8125 7.71875 13.8125H5.28125C5.05741 13.8125 4.875 13.6301 4.875 13.4062V11.7812Z" fill="#354759"/>
</g>
<defs>
<filter id="filter0_d_1474_37" x="-3.59375" y="1.625" width="33.1875" height="30.75" filterUnits="userSpaceOnUse" color-interpolation-filters="sRGB">
<feFlood flood-opacity="0" result="BackgroundImageFix"/>
<feColorMatrix in="SourceAlpha" type="matrix" values="0 0 0 0 0 0 0 0 0 0 0 0 0 0 0 0 0 0 127 0" result="hardAlpha"/>
<feOffset dy="4"/>
<feGaussianBlur stdDeviation="2"/>
<feComposite in2="hardAlpha" operator="out"/>
<feColorMatrix type="matrix" values="0 0 0 0 0 0 0 0 0 0 0 0 0 0 0 0 0 0 0.25 0"/>
<feBlend mode="normal" in2="BackgroundImageFix" result="effect1_dropShadow_1474_37"/>
<feBlend mode="normal" in="SourceGraphic" in2="effect1_dropShadow_1474_37" result="shape"/>
</filter>
<clipPath id="clip0_1474_37">
<rect width="26" height="26" fill="white"/>
</clipPath>
</defs>
</svg>
