<svg width="26" height="26" viewBox="0 0 26 26" fill="none" xmlns="http://www.w3.org/2000/svg">
<g clip-path="url(#clip0_1474_31)">
<g filter="url(#filter0_d_1474_31)">
<path fill-rule="evenodd" clip-rule="evenodd" d="M13.5926 15.3323C13.4581 14.4513 13.1063 13.6423 12.5863 12.9617L13.7578 11.7917L12.7056 10.741L11.5264 11.9202C10.8489 11.42 10.0429 11.0805 9.16806 10.952V9.27734H7.67994V10.9429C6.79747 11.0606 5.98535 11.3971 5.29406 11.8942L4.14394 10.7425L3.09171 11.7948L4.22347 12.9265C3.68818 13.6132 3.32724 14.433 3.19265 15.3308H1.625V16.8204H3.18194C3.30735 17.7243 3.66524 18.5548 4.19747 19.2506L3.09018 20.3564L4.14241 21.4071L5.25735 20.2922C5.95324 20.806 6.77912 21.1517 7.67841 21.274V22.8769H9.16653V21.2649C10.0582 21.1333 10.8749 20.7831 11.5631 20.2677L12.7041 21.4102L13.7563 20.3579L12.6154 19.2155C13.1323 18.5288 13.4779 17.712 13.6018 16.8235H15.2215V16.8204V15.3338H13.5926V15.3323ZM8.40641 18.804C6.90147 18.804 5.68253 17.5836 5.68253 16.0771C5.68253 14.5722 6.90147 13.3517 8.40641 13.3517C9.91288 13.3517 11.1349 14.5722 11.1349 16.0771C11.1349 17.5836 9.91288 18.804 8.40641 18.804Z" fill="#354759"/>
<path fill-rule="evenodd" clip-rule="evenodd" d="M21.4605 6.68265L23.1276 6.25288L22.7422 4.75559L21.0736 5.18688C20.8931 4.81982 20.6683 4.46806 20.3685 4.15912C20.0749 3.85935 19.7338 3.633 19.379 3.44947L19.8394 1.79924L18.3512 1.38477L17.8939 3.02429C17.0665 2.95853 16.2254 3.14359 15.4989 3.60853L14.3365 2.42171L13.2338 3.503L14.3901 4.68065C13.8915 5.39947 13.6728 6.24677 13.7156 7.08947L12.125 7.49935L12.5104 8.99359L14.0979 8.58371C14.2769 8.95535 14.5048 9.31018 14.8091 9.62065C15.1196 9.93876 15.4805 10.1743 15.8583 10.3624L15.4163 11.9515L16.9014 12.3659L17.3495 10.7631C18.1784 10.8136 19.0196 10.6102 19.7399 10.1284L20.9191 11.3305L22.0203 10.2492L20.8335 9.03947C21.303 8.32829 21.5049 7.50088 21.4605 6.68265ZM17.611 9.15571C16.3523 9.15571 15.3306 8.13253 15.3306 6.87229C15.3306 5.61512 16.3523 4.595 17.611 4.595C18.8682 4.595 19.8898 5.61512 19.8898 6.87229C19.8898 8.13253 18.8682 9.15571 17.611 9.15571Z" fill="#354759"/>
</g>
</g>
<defs>
<filter id="filter0_d_1474_31" x="-2.375" y="1.38477" width="29.502" height="29.4922" filterUnits="userSpaceOnUse" color-interpolation-filters="sRGB">
<feFlood flood-opacity="0" result="BackgroundImageFix"/>
<feColorMatrix in="SourceAlpha" type="matrix" values="0 0 0 0 0 0 0 0 0 0 0 0 0 0 0 0 0 0 127 0" result="hardAlpha"/>
<feOffset dy="4"/>
<feGaussianBlur stdDeviation="2"/>
<feComposite in2="hardAlpha" operator="out"/>
<feColorMatrix type="matrix" values="0 0 0 0 0 0 0 0 0 0 0 0 0 0 0 0 0 0 0.25 0"/>
<feBlend mode="normal" in2="BackgroundImageFix" result="effect1_dropShadow_1474_31"/>
<feBlend mode="normal" in="SourceGraphic" in2="effect1_dropShadow_1474_31" result="shape"/>
</filter>
<clipPath id="clip0_1474_31">
<rect width="26" height="26" fill="white"/>
</clipPath>
</defs>
</svg>
