<svg width="34" height="34" viewBox="0 0 34 34" fill="none" xmlns="http://www.w3.org/2000/svg">
<g filter="url(#filter0_d_1379_55)">
<path d="M16 3C13.4288 3 10.9154 3.76244 8.77759 5.19089C6.63975 6.61935 4.97351 8.64967 3.98957 11.0251C3.00563 13.4006 2.74819 16.0144 3.2498 18.5362C3.7514 21.0579 4.98953 23.3743 6.80762 25.1924C8.6257 27.0105 10.9421 28.2486 13.4638 28.7502C15.9856 29.2518 18.5994 28.9944 20.9749 28.0104C23.3503 27.0265 25.3806 25.3602 26.8091 23.2224C28.2376 21.0846 29 18.5712 29 16C29 14.2928 28.6637 12.6023 28.0104 11.0251C27.3571 9.44788 26.3995 8.01477 25.1924 6.80761C23.9852 5.60045 22.5521 4.64288 20.9749 3.98957C19.3977 3.33625 17.7072 3 16 3ZM23.371 23.332C23.6421 23.0586 23.8262 22.7112 23.9002 22.3333C23.9741 21.9555 23.9346 21.5643 23.7865 21.2089C23.6385 20.8535 23.3885 20.5499 23.0682 20.3363C22.7479 20.1228 22.3715 20.0088 21.9865 20.0088C21.6015 20.0088 21.2251 20.1228 20.9048 20.3363C20.5845 20.5499 20.3345 20.8535 20.1865 21.2089C20.0384 21.5643 19.9989 21.9555 20.0728 22.3333C20.1468 22.7112 20.3309 23.0586 20.602 23.332C20.7824 23.5163 20.9978 23.6628 21.2355 23.7628C21.4733 23.8628 21.7286 23.9143 21.9865 23.9143C22.2444 23.9143 22.4997 23.8628 22.7375 23.7628C22.9752 23.6628 23.1906 23.5163 23.371 23.332C21.4224 25.269 18.7865 26.3562 16.039 26.3562C13.2915 26.3562 10.6556 25.269 8.707 23.332C8.98035 23.6031 9.32783 23.7872 9.70565 23.8612C10.0835 23.9351 10.4747 23.8956 10.8301 23.7475C11.1855 23.5995 11.4891 23.3495 11.7027 23.0292C11.9162 22.7089 12.0302 22.3325 12.0302 21.9475C12.0302 21.5625 11.9162 21.1861 11.7027 20.8658C11.4891 20.5455 11.1855 20.2955 10.8301 20.1475C10.4747 19.9994 10.0835 19.9599 9.70565 20.0338C9.32783 20.1078 8.98035 20.2919 8.707 20.563C8.52265 20.7434 8.37618 20.9588 8.27618 21.1965C8.17618 21.4343 8.12467 21.6896 8.12467 21.9475C8.12467 22.2054 8.17618 22.4607 8.27618 22.6985C8.37618 22.9362 8.52265 23.1516 8.707 23.332C6.76999 21.3834 5.68276 18.7475 5.68276 16C5.68276 13.2525 6.76999 10.6166 8.707 8.668C8.43589 8.94134 8.25176 9.28882 8.17781 9.66665C8.10387 10.0445 8.14341 10.4357 8.29147 10.7911C8.43953 11.1465 8.68948 11.4501 9.0098 11.6637C9.33013 11.8772 9.70651 11.9912 10.0915 11.9912C10.4765 11.9912 10.8529 11.8772 11.1732 11.6637C11.4935 11.4501 11.7435 11.1465 11.8915 10.7911C12.0396 10.4357 12.0791 10.0445 12.0052 9.66665C11.9312 9.28882 11.7471 8.94134 11.476 8.668C11.2956 8.48365 11.0802 8.33717 10.8425 8.23718C10.6047 8.13718 10.3494 8.08567 10.0915 8.08567C9.83358 8.08567 9.57826 8.13718 9.34051 8.23718C9.10277 8.33717 8.88738 8.48365 8.707 8.668C10.6556 6.73099 13.2915 5.64376 16.039 5.64376C18.7865 5.64376 21.4224 6.73099 23.371 8.668C23.0977 8.39689 22.7502 8.21275 22.3724 8.13881C21.9945 8.06486 21.6033 8.10441 21.2479 8.25247C20.8925 8.40053 20.5889 8.65047 20.3753 8.9708C20.1618 9.29113 20.0478 9.66751 20.0478 10.0525C20.0478 10.4375 20.1618 10.8139 20.3753 11.1342C20.5889 11.4545 20.8925 11.7045 21.2479 11.8525C21.6033 12.0006 21.9945 12.0401 22.3724 11.9662C22.7502 11.8922 23.0977 11.7081 23.371 11.437C23.5554 11.2566 23.7018 11.0412 23.8018 10.8035C23.9018 10.5657 23.9533 10.3104 23.9533 10.0525C23.9533 9.79458 23.9018 9.53925 23.8018 9.30151C23.7018 9.06376 23.5554 8.84838 23.371 8.668C25.308 10.6166 26.3952 13.2525 26.3952 16C26.3952 18.7475 25.308 21.3834 23.371 23.332Z" fill="#354759"/>
<path d="M16 9.5C14.7144 9.5 13.4577 9.88122 12.3888 10.5954C11.3199 11.3097 10.4868 12.3248 9.99479 13.5126C9.50282 14.7003 9.37409 16.0072 9.6249 17.2681C9.8757 18.529 10.4948 19.6872 11.4038 20.5962C12.3128 21.5052 13.471 22.1243 14.7319 22.3751C15.9928 22.6259 17.2997 22.4972 18.4874 22.0052C19.6752 21.5132 20.6903 20.6801 21.4046 19.6112C22.1188 18.5423 22.5 17.2856 22.5 16C22.5 14.2761 21.8152 12.6228 20.5962 11.4038C19.3772 10.1848 17.7239 9.5 16 9.5ZM16 19.9C15.2287 19.9 14.4746 19.6713 13.8333 19.2427C13.1919 18.8142 12.6921 18.2051 12.3969 17.4925C12.1017 16.7798 12.0245 15.9957 12.1749 15.2391C12.3254 14.4826 12.6969 13.7877 13.2423 13.2423C13.7877 12.6969 14.4826 12.3254 15.2391 12.1749C15.9957 12.0245 16.7798 12.1017 17.4925 12.3969C18.2051 12.6921 18.8142 13.1919 19.2427 13.8333C19.6713 14.4746 19.9 15.2287 19.9 16C19.9 17.0343 19.4891 18.0263 18.7577 18.7577C18.0263 19.4891 17.0343 19.9 16 19.9Z" fill="#354759"/>
<path d="M16.0008 9.49961C17.0777 9.49961 17.9508 8.62656 17.9508 7.54961C17.9508 6.47265 17.0777 5.59961 16.0008 5.59961C14.9238 5.59961 14.0508 6.47265 14.0508 7.54961C14.0508 8.62656 14.9238 9.49961 16.0008 9.49961Z" fill="#354759"/>
<path d="M16.0008 26.4C17.0777 26.4 17.9508 25.527 17.9508 24.45C17.9508 23.373 17.0777 22.5 16.0008 22.5C14.9238 22.5 14.0508 23.373 14.0508 24.45C14.0508 25.527 14.9238 26.4 16.0008 26.4Z" fill="#354759"/>
<path d="M7.54961 17.9508C8.62656 17.9508 9.49961 17.0777 9.49961 16.0008C9.49961 14.9238 8.62656 14.0508 7.54961 14.0508C6.47265 14.0508 5.59961 14.9238 5.59961 16.0008C5.59961 17.0777 6.47265 17.9508 7.54961 17.9508Z" fill="#354759"/>
<path d="M24.45 17.9508C25.527 17.9508 26.4 17.0777 26.4 16.0008C26.4 14.9238 25.527 14.0508 24.45 14.0508C23.373 14.0508 22.5 14.9238 22.5 16.0008C22.5 17.0777 23.373 17.9508 24.45 17.9508Z" fill="#354759"/>
</g>
<defs>
<filter id="filter0_d_1379_55" x="0" y="0" width="34" height="34" filterUnits="userSpaceOnUse" color-interpolation-filters="sRGB">
<feFlood flood-opacity="0" result="BackgroundImageFix"/>
<feColorMatrix in="SourceAlpha" type="matrix" values="0 0 0 0 0 0 0 0 0 0 0 0 0 0 0 0 0 0 127 0" result="hardAlpha"/>
<feOffset dx="1" dy="1"/>
<feGaussianBlur stdDeviation="2"/>
<feComposite in2="hardAlpha" operator="out"/>
<feColorMatrix type="matrix" values="0 0 0 0 0 0 0 0 0 0 0 0 0 0 0 0 0 0 0.25 0"/>
<feBlend mode="normal" in2="BackgroundImageFix" result="effect1_dropShadow_1379_55"/>
<feBlend mode="normal" in="SourceGraphic" in2="effect1_dropShadow_1379_55" result="shape"/>
</filter>
</defs>
</svg>
