<svg width="34" height="34" viewBox="0 0 34 34" fill="none" xmlns="http://www.w3.org/2000/svg">
<g filter="url(#filter0_d_1379_48)">
<mask id="path-1-inside-1_1379_48" fill="white">
<path d="M9.53532 16.5215C7.35762 16.5215 5.58594 18.2921 5.58594 20.4683C5.58594 22.6446 7.35762 24.4152 9.53532 24.4152C11.713 24.4152 13.4846 22.6446 13.4846 20.4683C13.4846 18.292 11.713 16.5215 9.53532 16.5215ZM9.53532 23.3322C7.95515 23.3322 6.66961 22.0474 6.66961 20.4683C6.66961 18.8891 7.95515 17.6044 9.53532 17.6044C11.1154 17.6044 12.401 18.8891 12.401 20.4683C12.401 22.0474 11.1154 23.3322 9.53532 23.3322Z"/>
</mask>
<path d="M9.53532 14.6702C6.33632 14.6702 3.73468 17.2685 3.73468 20.4683H7.4372C7.4372 19.3156 8.37893 18.3727 9.53532 18.3727V14.6702ZM3.73468 20.4683C3.73468 23.6682 6.3363 26.2665 9.53532 26.2665V22.564C8.37894 22.564 7.4372 21.6211 7.4372 20.4683H3.73468ZM9.53532 26.2665C12.7343 26.2665 15.3359 23.6682 15.3359 20.4683H11.6334C11.6334 21.6211 10.6916 22.564 9.53532 22.564V26.2665ZM15.3359 20.4683C15.3359 17.2685 12.7343 14.6702 9.53532 14.6702V18.3727C10.6917 18.3727 11.6334 19.3155 11.6334 20.4683H15.3359ZM9.53532 21.4809C8.97647 21.4809 8.52087 21.0239 8.52087 20.4683H4.81835C4.81835 23.071 6.93382 25.1834 9.53532 25.1834V21.4809ZM8.52087 20.4683C8.52087 19.9127 8.97644 19.4557 9.53532 19.4557V15.7532C6.93385 15.7532 4.81835 17.8656 4.81835 20.4683H8.52087ZM9.53532 19.4557C10.0941 19.4557 10.5497 19.9127 10.5497 20.4683H14.2522C14.2522 17.8656 12.1368 15.7532 9.53532 15.7532V19.4557ZM10.5497 20.4683C10.5497 21.0239 10.0941 21.4809 9.53532 21.4809V25.1834C12.1368 25.1834 14.2522 23.0709 14.2522 20.4683H10.5497Z" fill="#354759" mask="url(#path-1-inside-1_1379_48)"/>
<path d="M9.04672 20.4665C9.04672 20.4664 9.04672 20.4664 9.04672 20.4664C9.04676 20.1987 9.26639 19.9784 9.53571 19.9784C9.80503 19.9784 10.0247 20.1987 10.0247 20.4664C10.0247 20.4664 10.0247 20.4664 10.0247 20.4665C10.0247 20.7342 9.80505 20.9546 9.53571 20.9546C9.26637 20.9546 9.04672 20.7342 9.04672 20.4665ZM9.53571 20.7971C9.35323 20.7971 9.20477 20.6488 9.20477 20.4664C9.20477 20.284 9.35323 20.1357 9.53571 20.1357C9.71819 20.1357 9.86665 20.284 9.86665 20.4664C9.86665 20.6488 9.71819 20.7971 9.53571 20.7971Z" stroke="#354759" stroke-width="1.85126"/>
<mask id="path-4-inside-2_1379_48" fill="white">
<path d="M12.7207 6.46814C13.8375 6.46814 14.7461 5.56011 14.7461 4.44403C14.7461 3.32795 13.8375 2.41992 12.7207 2.41992C11.6039 2.41992 10.6953 3.32795 10.6953 4.44403C10.6953 5.56011 11.6039 6.46814 12.7207 6.46814ZM12.7207 3.50291C13.24 3.50291 13.6624 3.9251 13.6624 4.44403C13.6624 4.96296 13.24 5.38515 12.7207 5.38515C12.2014 5.38515 11.779 4.96296 11.779 4.44403C11.779 3.9251 12.2014 3.50291 12.7207 3.50291Z"/>
</mask>
<path d="M12.7207 8.3194C14.8588 8.3194 16.5973 6.58363 16.5973 4.44403H12.8948C12.8948 4.53659 12.8162 4.61688 12.7207 4.61688V8.3194ZM16.5973 4.44403C16.5973 2.30446 14.8589 0.568661 12.7207 0.568661V4.27118C12.8162 4.27118 12.8948 4.35143 12.8948 4.44403H16.5973ZM12.7207 0.568661C10.5825 0.568661 8.84405 2.30446 8.84405 4.44403H12.5466C12.5466 4.35143 12.6252 4.27118 12.7207 4.27118V0.568661ZM8.84405 4.44403C8.84405 6.58363 10.5826 8.3194 12.7207 8.3194V4.61688C12.6252 4.61688 12.5466 4.53659 12.5466 4.44403H8.84405ZM12.7207 5.35417C12.2186 5.35417 11.8111 4.94862 11.8111 4.44403H15.5137C15.5137 2.90158 14.2613 1.65165 12.7207 1.65165V5.35417ZM11.8111 4.44403C11.8111 3.93944 12.2186 3.53389 12.7207 3.53389V7.23641C14.2613 7.23641 15.5137 5.98648 15.5137 4.44403H11.8111ZM12.7207 3.53389C13.2228 3.53389 13.6302 3.93944 13.6302 4.44403H9.92772C9.92772 5.98648 11.1801 7.23641 12.7207 7.23641V3.53389ZM13.6302 4.44403C13.6302 4.94862 13.2228 5.35417 12.7207 5.35417V1.65165C11.1801 1.65165 9.92772 2.90158 9.92772 4.44403H13.6302Z" fill="#354759" mask="url(#path-4-inside-2_1379_48)"/>
<path d="M26.4396 11.3735C26.4396 11.3172 26.4852 11.2726 26.5401 11.2726C26.595 11.2726 26.6405 11.3172 26.6405 11.3735C26.6405 11.4298 26.595 11.4745 26.5401 11.4745C26.4852 11.4745 26.4396 11.4298 26.4396 11.3735Z" stroke="#354759" stroke-width="1.85126"/>
<mask id="path-7-inside-3_1379_48" fill="white">
<path d="M28.3473 14.3189C29.3378 13.7102 30 12.6176 30 11.3727C30 10.1429 29.3535 9.06168 28.3829 8.44871L14.9498 0.598292L14.951 0.602082C14.2946 0.220027 13.5327 0 12.7199 0C10.7669 0 9.10488 1.26493 8.50838 3.01769C8.48622 3.08285 4.1702 19.0976 4.14058 19.226L4.14034 19.2269L4.1404 19.2269C4.04858 19.6258 4 20.041 4 20.4673C4 23.518 6.48354 26 9.53618 26C10.5839 26 11.5645 25.7075 12.4007 25.2001C12.4727 25.1565 28.3281 14.3307 28.3473 14.3189ZM25.7914 14.7472L14.7706 22.2693C14.966 21.7041 15.0724 21.098 15.0724 20.4674C15.0724 17.4166 12.5888 14.9347 9.53618 14.9347C8.24625 14.9347 7.058 15.3779 6.11575 16.1199L8.71861 6.38597C9.44094 7.86756 10.963 8.89099 12.7199 8.89099C15.1728 8.89099 17.1682 6.89672 17.1682 4.44549C17.1682 3.94287 17.0831 3.46003 16.9286 3.00903L25.566 8.05612C24.1317 8.47789 23.0814 9.80461 23.0814 11.3727C23.0814 13.0218 24.2431 14.4041 25.7914 14.7472ZM26.5407 13.7468C25.2308 13.7468 24.1651 12.6818 24.1651 11.3727C24.1651 10.0635 25.2308 8.9985 26.5407 8.9985C27.8507 8.9985 28.9164 10.0636 28.9164 11.3727C28.9164 12.6818 27.8507 13.7468 26.5407 13.7468ZM12.7199 1.08299C14.5752 1.08299 16.0846 2.59141 16.0846 4.44549C16.0846 6.29957 14.5752 7.808 12.7199 7.808C10.8647 7.808 9.35533 6.29957 9.35533 4.44549C9.35533 2.59141 10.8646 1.08299 12.7199 1.08299ZM5.08367 20.4674C5.08367 18.0138 7.08106 16.0177 9.53618 16.0177C11.9913 16.0177 13.9887 18.0138 13.9887 20.4674C13.9887 22.9209 11.9913 24.9171 9.53618 24.9171C7.08106 24.9171 5.08367 22.9209 5.08367 20.4674Z"/>
</mask>
<path d="M28.3473 14.3189L29.316 15.8965L29.3167 15.8961L28.3473 14.3189ZM28.3829 8.44871L29.3714 6.88345L29.3445 6.86644L29.317 6.85037L28.3829 8.44871ZM14.9498 0.598292L15.8839 -1.00004L11.6378 -3.48149L13.1936 1.18395L14.9498 0.598292ZM14.951 0.602082L14.0198 2.20206L18.2589 4.66941L16.7072 0.0164263L14.951 0.602082ZM8.50838 3.01769L6.75583 2.42126L6.75566 2.42175L8.50838 3.01769ZM4.14058 19.226L5.93644 19.6754L5.9406 19.6588L5.94446 19.6421L4.14058 19.226ZM4.14034 19.2269L2.34447 18.7774L0.710487 25.3058L5.45362 20.5317L4.14034 19.2269ZM4.1404 19.2269L5.94449 19.6421L7.39964 13.3197L2.82711 17.9221L4.1404 19.2269ZM12.4007 25.2001L11.4415 23.6167L11.4404 23.6174L12.4007 25.2001ZM25.7914 14.7472L26.8351 16.2762L30.3676 13.8652L26.192 12.9398L25.7914 14.7472ZM14.7706 22.2693L13.0209 21.6644L11.1929 26.9525L15.8142 23.7983L14.7706 22.2693ZM6.11575 16.1199L4.32732 15.6417L2.89018 21.0161L7.26105 17.5743L6.11575 16.1199ZM8.71861 6.38597L10.3826 5.5747L8.21057 1.11949L6.93018 5.90774L8.71861 6.38597ZM16.9286 3.00903L17.8625 1.41064L13.563 -1.10167L15.1773 3.60913L16.9286 3.00903ZM25.566 8.05612L26.0883 9.83219L30.2039 8.62198L26.5 6.45773L25.566 8.05612ZM23.0814 11.3727H21.2301V11.3727L23.0814 11.3727ZM28.9164 11.3727H27.0651H28.9164ZM29.3167 15.8961C30.8294 14.9664 31.8513 13.2905 31.8513 11.3727H28.1487C28.1487 11.9446 27.8462 12.454 27.378 12.7417L29.3167 15.8961ZM31.8513 11.3727C31.8513 9.47793 30.8535 7.81943 29.3714 6.88345L27.3944 10.014C27.8536 10.3039 28.1487 10.8078 28.1487 11.3727H31.8513ZM29.317 6.85037L15.8839 -1.00004L14.0157 2.19662L27.4488 10.047L29.317 6.85037ZM13.1936 1.18395L13.1949 1.18774L16.7072 0.0164263L16.706 0.0126358L13.1936 1.18395ZM15.8823 -0.997896C14.9532 -1.53868 13.8713 -1.85126 12.7199 -1.85126V1.85126C13.1941 1.85126 13.6361 1.97874 14.0198 2.20206L15.8823 -0.997896ZM12.7199 -1.85126C9.94827 -1.85126 7.59918 -0.0568556 6.75583 2.42126L10.2609 3.61412C10.6106 2.58672 11.5855 1.85126 12.7199 1.85126V-1.85126ZM6.75566 2.42175C6.72763 2.50419 6.62952 2.87075 6.5285 3.24424C6.40817 3.68913 6.23754 4.32094 6.03341 5.07731C5.62513 6.59015 5.08256 8.60234 4.53979 10.6164C3.46556 14.6025 2.36163 18.7017 2.3367 18.8098L5.94446 19.6421C5.94184 19.6534 6.20011 18.6902 6.6201 17.1295C7.02915 15.6093 7.57206 13.5936 8.11477 11.5798C8.65747 9.56601 9.19991 7.55429 9.60804 6.04203C9.81212 5.28585 9.98254 4.65482 10.1026 4.21093C10.242 3.69563 10.2836 3.54748 10.2611 3.61363L6.75566 2.42175ZM2.34471 18.7765L2.34447 18.7774L5.9362 19.6764L5.93644 19.6754L2.34471 18.7765ZM5.45362 20.5317L5.45368 20.5316L2.82711 17.9221L2.82705 17.9221L5.45362 20.5317ZM2.3363 18.8116C2.21345 19.3454 2.14874 19.8999 2.14874 20.4673H5.85126C5.85126 20.1821 5.88372 19.9061 5.94449 19.6421L2.3363 18.8116ZM2.14874 20.4673C2.14874 24.5415 5.46221 27.8513 9.53618 27.8513V24.1487C7.50486 24.1487 5.85126 22.4945 5.85126 20.4673H2.14874ZM9.53618 27.8513C10.9331 27.8513 12.2444 27.4603 13.361 26.7828L11.4404 23.6174C10.8845 23.9546 10.2347 24.1487 9.53618 24.1487V27.8513ZM13.3599 26.7835C13.4532 26.727 17.5166 23.9528 21.4375 21.2766C25.462 18.5296 29.3572 15.8713 29.316 15.8965L27.3786 12.7413C27.3183 12.7784 23.2761 15.5388 19.3502 18.2185C15.3205 20.9691 11.4202 23.6296 11.4415 23.6167L13.3599 26.7835ZM24.7478 13.2181L13.727 20.7402L15.8142 23.7983L26.8351 16.2762L24.7478 13.2181ZM16.5203 22.8741C16.7817 22.1179 16.9236 21.3075 16.9236 20.4674H13.2211C13.2211 20.8884 13.1503 21.2904 13.0209 21.6644L16.5203 22.8741ZM16.9236 20.4674C16.9236 16.3931 13.6101 13.0834 9.53618 13.0834V16.7859C11.5675 16.7859 13.2211 18.4402 13.2211 20.4674H16.9236ZM9.53618 13.0834C7.81489 13.0834 6.22642 13.6764 4.97045 14.6654L7.26105 17.5743C7.88958 17.0794 8.67761 16.7859 9.53618 16.7859V13.0834ZM7.90417 16.5981L10.507 6.8642L6.93018 5.90774L4.32732 15.6417L7.90417 16.5981ZM7.05458 7.19724C8.07441 9.28905 10.2265 10.7422 12.7199 10.7422V7.03973C11.6994 7.03973 10.8075 6.44607 10.3826 5.5747L7.05458 7.19724ZM12.7199 10.7422C16.1941 10.7422 19.0195 7.92023 19.0195 4.44549H15.317C15.317 5.87322 14.1514 7.03973 12.7199 7.03973V10.7422ZM19.0195 4.44549C19.0195 3.73228 18.8985 3.04693 18.6799 2.40892L15.1773 3.60913C15.2677 3.87314 15.317 4.15345 15.317 4.44549H19.0195ZM15.9946 4.60742L24.6321 9.65451L26.5 6.45773L17.8625 1.41064L15.9946 4.60742ZM25.0438 6.28006C22.8463 6.92624 21.2301 8.95785 21.2301 11.3727H24.9326C24.9326 10.6514 25.4172 10.0295 26.0883 9.83219L25.0438 6.28006ZM21.2301 11.3727C21.2302 13.9114 23.0162 16.0283 25.3909 16.5546L26.192 12.9398C25.47 12.7798 24.9326 12.1322 24.9326 11.3726L21.2301 11.3727ZM26.5407 11.8956C26.2521 11.8956 26.0163 11.6582 26.0163 11.3727H22.3138C22.3138 13.7053 24.2095 15.5981 26.5407 15.5981V11.8956ZM26.0163 11.3727C26.0163 11.0871 26.2521 10.8498 26.5407 10.8498V7.14724C24.2095 7.14724 22.3138 9.03995 22.3138 11.3727H26.0163ZM26.5407 10.8498C26.8293 10.8498 27.0651 11.0871 27.0651 11.3727H30.7676C30.7676 9.04004 28.872 7.14724 26.5407 7.14724V10.8498ZM27.0651 11.3727C27.0651 11.6583 26.8294 11.8956 26.5407 11.8956V15.5981C28.8719 15.5981 30.7676 13.7054 30.7676 11.3727H27.0651ZM12.7199 2.93425C13.5539 2.93425 14.2333 3.61494 14.2333 4.44549H17.9358C17.9358 1.56789 15.5965 -0.76827 12.7199 -0.76827V2.93425ZM14.2333 4.44549C14.2333 5.27605 13.5539 5.95674 12.7199 5.95674V9.65926C15.5965 9.65926 17.9358 7.32309 17.9358 4.44549H14.2333ZM12.7199 5.95674C11.886 5.95674 11.2066 5.27605 11.2066 4.44549H7.50407C7.50407 7.32309 9.84338 9.65926 12.7199 9.65926V5.95674ZM11.2066 4.44549C11.2066 3.61491 11.886 2.93425 12.7199 2.93425V-0.76827C9.84329 -0.76827 7.50407 1.56791 7.50407 4.44549H11.2066ZM6.93493 20.4674C6.93493 19.0373 8.10238 17.8689 9.53618 17.8689V14.1664C6.05974 14.1664 3.23241 16.9903 3.23241 20.4674H6.93493ZM9.53618 17.8689C10.97 17.8689 12.1374 19.0373 12.1374 20.4674H15.8399C15.8399 16.9903 13.0126 14.1664 9.53618 14.1664V17.8689ZM12.1374 20.4674C12.1374 21.8974 10.97 23.0658 9.53618 23.0658V26.7683C13.0126 26.7683 15.8399 23.9445 15.8399 20.4674H12.1374ZM9.53618 23.0658C8.10238 23.0658 6.93493 21.8974 6.93493 20.4674H3.23241C3.23241 23.9445 6.05974 26.7683 9.53618 26.7683V23.0658Z" fill="#354759" mask="url(#path-7-inside-3_1379_48)"/>
</g>
<defs>
<filter id="filter0_d_1379_48" x="0" y="0" width="34" height="34" filterUnits="userSpaceOnUse" color-interpolation-filters="sRGB">
<feFlood flood-opacity="0" result="BackgroundImageFix"/>
<feColorMatrix in="SourceAlpha" type="matrix" values="0 0 0 0 0 0 0 0 0 0 0 0 0 0 0 0 0 0 127 0" result="hardAlpha"/>
<feOffset dy="4"/>
<feGaussianBlur stdDeviation="2"/>
<feComposite in2="hardAlpha" operator="out"/>
<feColorMatrix type="matrix" values="0 0 0 0 0 0 0 0 0 0 0 0 0 0 0 0 0 0 0.25 0"/>
<feBlend mode="normal" in2="BackgroundImageFix" result="effect1_dropShadow_1379_48"/>
<feBlend mode="normal" in="SourceGraphic" in2="effect1_dropShadow_1379_48" result="shape"/>
</filter>
</defs>
</svg>
