<svg width="26" height="26" viewBox="0 0 26 26" fill="none" xmlns="http://www.w3.org/2000/svg">
<path d="M14.0833 13.0006C14.6813 13.0006 15.1666 12.5153 15.1666 11.9173C15.1666 11.3193 14.6813 10.834 14.0833 10.834C13.4853 10.834 13 11.3193 13 11.9173C13 12.5153 13.4853 13.0006 14.0833 13.0006Z" fill="#354759"/>
<path d="M14.0833 15.166C13.4853 15.166 13 15.6513 13 16.2493C13 16.8473 13.4853 17.3326 14.0833 17.3326C14.6813 17.3326 15.1666 16.8473 15.1666 16.2493C15.1666 15.6513 14.6813 15.166 14.0833 15.166Z" fill="#354759"/>
<path d="M14.0819 7.58398C10.4926 7.58398 7.58203 10.4946 7.58203 14.0839C7.58203 17.6732 10.4926 20.5838 14.0819 20.5838C17.6712 20.5838 20.5818 17.6732 20.5818 14.0839C20.5818 10.4946 17.6712 7.58398 14.0819 7.58398ZM14.0819 18.4172C11.6892 18.4172 9.74868 16.4766 9.74868 14.0839C9.74868 11.6912 11.6892 9.75068 14.0819 9.75068C16.4746 9.75068 18.4152 11.6912 18.4152 14.0839C18.4152 16.4766 16.4746 18.4172 14.0819 18.4172Z" fill="#354759"/>
<g filter="url(#filter0_d_1476_61)">
<path d="M15.5932 2.25184V1.71027C15.5932 0.724827 14.7657 -0.0446982 13.7896 0.00201973C6.33418 0.366216 0.365259 6.3355 0.0022806 13.7896C-0.0474841 14.7641 0.723362 15.593 1.70936 15.593H2.25089C2.99792 21.477 8.02182 26 14.0761 26C20.6609 26 25.999 20.6616 25.999 14.076C25.999 8.02166 21.4771 2.99842 15.5932 2.25184ZM13.4261 2.19786V4.37705C13.1617 4.40478 12.9005 4.44302 12.6427 4.49029C9.54914 5.05715 6.95574 7.00768 5.52246 9.68345C4.91487 10.8176 4.51569 12.0819 4.37498 13.4263H2.19812C2.71522 7.45998 7.46136 2.7144 13.4261 2.19786ZM14.0761 23.8334C9.21729 23.8334 5.16832 20.2726 4.43825 15.5937H4.79752C5.4174 15.5937 5.97039 15.2618 6.26934 14.7576C6.40162 14.5351 6.48449 14.279 6.5011 14.0028C6.59504 12.4646 7.11727 11.048 7.95052 9.86885C9.10349 8.23758 10.8521 7.06125 12.889 6.64876C13.2517 6.57539 13.6236 6.52623 14.0028 6.50302C14.2562 6.48779 14.4929 6.41685 14.7022 6.3029C14.7059 6.30092 14.7094 6.29873 14.713 6.2967C14.7324 6.28594 14.7518 6.27502 14.7707 6.26349C14.7835 6.25572 14.796 6.24739 14.8086 6.23932C14.8181 6.23318 14.8279 6.22729 14.8373 6.22099C14.8533 6.21022 14.8689 6.1989 14.8845 6.18758C14.8902 6.18346 14.8961 6.17965 14.9016 6.17549C14.9177 6.16356 14.9333 6.15111 14.9489 6.13867C14.9538 6.13476 14.9589 6.13106 14.9637 6.12704C14.9768 6.11633 14.9894 6.10516 15.0022 6.09409C15.0092 6.08794 15.0166 6.08205 15.0235 6.07581C15.031 6.0691 15.038 6.0621 15.0454 6.05524C15.3836 5.74066 15.5931 5.29059 15.5931 4.79883V4.43906C20.2722 5.16831 23.8324 9.21678 23.8324 14.076C23.8324 19.465 19.4644 23.8334 14.0761 23.8334Z" fill="#354759"/>
</g>
<path d="M11.9153 13C11.3173 13 10.832 13.4853 10.832 14.0833C10.832 14.6813 11.3173 15.1666 11.9153 15.1666C12.5133 15.1666 12.9986 14.6813 12.9986 14.0833C12.9986 13.4853 12.5133 13 11.9153 13Z" fill="#354759"/>
<path d="M16.2493 13C15.6513 13 15.166 13.4853 15.166 14.0833C15.166 14.6813 15.6513 15.1666 16.2493 15.1666C16.8473 15.1666 17.3326 14.6813 17.3326 14.0833C17.3326 13.4853 16.8473 13 16.2493 13Z" fill="#354759"/>
<defs>
<filter id="filter0_d_1476_61" x="-4" y="-4" width="34" height="34" filterUnits="userSpaceOnUse" color-interpolation-filters="sRGB">
<feFlood flood-opacity="0" result="BackgroundImageFix"/>
<feColorMatrix in="SourceAlpha" type="matrix" values="0 0 0 0 0 0 0 0 0 0 0 0 0 0 0 0 0 0 127 0" result="hardAlpha"/>
<feOffset/>
<feGaussianBlur stdDeviation="2"/>
<feComposite in2="hardAlpha" operator="out"/>
<feColorMatrix type="matrix" values="0 0 0 0 0 0 0 0 0 0 0 0 0 0 0 0 0 0 0.25 0"/>
<feBlend mode="normal" in2="BackgroundImageFix" result="effect1_dropShadow_1476_61"/>
<feBlend mode="normal" in="SourceGraphic" in2="effect1_dropShadow_1476_61" result="shape"/>
</filter>
</defs>
</svg>
