<svg width="26" height="26" viewBox="0 0 26 26" fill="none" xmlns="http://www.w3.org/2000/svg">
<g clip-path="url(#clip0_1475_46)">
<g filter="url(#filter0_d_1475_46)">
<path d="M21.6673 6.06743C21.6673 5.46071 21.6669 5.15711 21.5488 4.92538C21.445 4.72154 21.2798 4.55593 21.076 4.45206C20.8443 4.33398 20.5403 4.33398 19.9335 4.33398H6.06689C5.46017 4.33398 5.15711 4.33398 4.92538 4.45206C4.72154 4.55593 4.55593 4.72154 4.45206 4.92538C4.33398 5.15711 4.33398 5.46071 4.33398 6.06743V6.86612C4.33398 7.1311 4.33398 7.26367 4.36392 7.38836C4.39046 7.4989 4.43433 7.60449 4.49373 7.70142C4.5607 7.8107 4.65455 7.90455 4.8418 8.0918L10.3264 13.5764C10.5138 13.7638 10.607 13.8569 10.674 13.9663C10.7334 14.0632 10.7778 14.1691 10.8044 14.2797C10.834 14.4031 10.834 14.5341 10.834 14.7938V19.9459C10.834 20.8745 10.834 21.3392 11.0295 21.6188C11.2004 21.863 11.4638 22.0259 11.7586 22.0695C12.0962 22.1193 12.5117 21.9118 13.3423 21.4966L14.209 21.0632C14.5569 20.8894 14.7303 20.8021 14.8574 20.6723C14.9697 20.5575 15.0557 20.4199 15.1081 20.2681C15.1673 20.0964 15.1673 19.9015 15.1673 19.5126V14.8018C15.1673 14.5368 15.1673 14.4044 15.1972 14.2797C15.2238 14.1691 15.2676 14.0632 15.3271 13.9663C15.3936 13.8577 15.4866 13.7647 15.6714 13.5799L15.6752 13.5764L21.1598 8.0918C21.3471 7.90443 21.4403 7.81075 21.5073 7.70142C21.5667 7.60449 21.6112 7.4989 21.6377 7.38836C21.6673 7.26495 21.6673 7.13379 21.6673 6.87418V6.06743Z" stroke="#354759" stroke-linecap="round" stroke-linejoin="round"/>
</g>
</g>
<defs>
<filter id="filter0_d_1475_46" x="-0.166016" y="3.83398" width="26.334" height="26.7422" filterUnits="userSpaceOnUse" color-interpolation-filters="sRGB">
<feFlood flood-opacity="0" result="BackgroundImageFix"/>
<feColorMatrix in="SourceAlpha" type="matrix" values="0 0 0 0 0 0 0 0 0 0 0 0 0 0 0 0 0 0 127 0" result="hardAlpha"/>
<feOffset dy="4"/>
<feGaussianBlur stdDeviation="2"/>
<feComposite in2="hardAlpha" operator="out"/>
<feColorMatrix type="matrix" values="0 0 0 0 0 0 0 0 0 0 0 0 0 0 0 0 0 0 0.25 0"/>
<feBlend mode="normal" in2="BackgroundImageFix" result="effect1_dropShadow_1475_46"/>
<feBlend mode="normal" in="SourceGraphic" in2="effect1_dropShadow_1475_46" result="shape"/>
</filter>
<clipPath id="clip0_1475_46">
<rect width="26" height="26" fill="white"/>
</clipPath>
</defs>
</svg>
