<svg width="34" height="34" viewBox="0 0 34 34" fill="none" xmlns="http://www.w3.org/2000/svg">
<g filter="url(#filter0_d_1379_47)">
<path d="M24.3521 5.82729L24.3529 5.8265C24.3526 5.82677 24.3524 5.82703 24.3521 5.82729ZM24.3521 5.82729L24.5205 5.9955L26.5267 1.65082L26.1589 1.28405L23.4401 4.00502C23.44 4.00507 23.44 4.00513 23.4399 4.00519C23.4396 4.00555 23.4392 4.00591 23.4388 4.00626C23.4388 4.00627 23.4388 4.00628 23.4388 4.00629C22.9817 4.46499 22.8269 5.11627 22.9777 5.71005C23.0192 5.87337 23.0838 6.03234 23.1717 6.18176L23.3312 6.4532L23.8482 5.93576L23.8551 5.92878L24.1538 5.62981C24.0998 5.68422 24.1 5.77224 24.1541 5.82639C24.2086 5.881 24.2975 5.88108 24.3521 5.82729ZM24.3521 5.82729L24.0531 6.12657L24.0461 6.13355L23.5284 6.65174L24.3521 5.82729ZM22.8873 3.45298L23.2549 3.82004L29.246 0.730847C28.2775 -0.243336 26.5788 -0.243743 25.6077 0.73039L22.8873 3.45298ZM22.8873 3.45298C22.0418 4.29963 21.9179 5.59043 22.4981 6.57763L14.1875 12.8949L16.9065 10.1738C16.9069 10.1734 16.9074 10.1729 16.9078 10.1725C16.908 10.1723 16.9082 10.1721 16.9083 10.1719C17.2953 9.78487 17.8136 9.57117 18.3597 9.57117C18.5847 9.57117 18.8328 9.64778 18.8536 9.65422C18.8545 9.65448 18.8549 9.65462 18.855 9.65464L19.4421 9.80096L19.8773 9.90943L20.0115 9.77519L20.0154 9.77123L22.8507 6.93326L22.8524 6.93157L22.9906 6.79325L22.8807 6.35277L22.7354 5.77051C22.5741 5.12375 22.7051 4.37032 23.2536 3.82127L23.2537 3.82123L23.2547 3.82016L22.8873 3.45298ZM15.2854 14.9024L15.2862 14.9016M15.2854 14.9024L15.2862 14.9016M15.2854 14.9024C15.2857 14.9021 15.2859 14.9018 15.2862 14.9016M15.2854 14.9024L15.2862 14.9016M9.64744 20.1489L9.64664 20.1497C9.64691 20.1494 9.64717 20.1492 9.64744 20.1489ZM9.64744 20.1489C9.70205 20.0951 9.79092 20.0952 9.84547 20.1498C9.89966 20.2041 9.89974 20.2923 9.84541 20.3467L10.1514 20.0404L10.1518 20.04L10.6683 19.5231L9.64744 20.1489ZM5.12117 24.8783C5.12143 24.8785 5.1217 24.8788 5.12197 24.8791C5.51418 25.2717 6.04364 25.468 6.57314 25.4681C7.10273 25.4682 7.63235 25.272 8.02473 24.8795C8.0249 24.8793 8.02507 24.8792 8.02524 24.879C8.02584 24.8784 8.02644 24.8778 8.02703 24.8772L10.7456 22.1565L5.12117 24.8783ZM18.7144 11.0738C18.7144 11.0738 18.7144 11.0738 18.7144 11.0738L18.7144 11.0738Z" stroke="#354759" stroke-width="1.5625" shape-rendering="crispEdges"/>
</g>
<defs>
<filter id="filter0_d_1379_47" x="0" y="0" width="34" height="34" filterUnits="userSpaceOnUse" color-interpolation-filters="sRGB">
<feFlood flood-opacity="0" result="BackgroundImageFix"/>
<feColorMatrix in="SourceAlpha" type="matrix" values="0 0 0 0 0 0 0 0 0 0 0 0 0 0 0 0 0 0 127 0" result="hardAlpha"/>
<feOffset dy="4"/>
<feGaussianBlur stdDeviation="2"/>
<feComposite in2="hardAlpha" operator="out"/>
<feColorMatrix type="matrix" values="0 0 0 0 0 0 0 0 0 0 0 0 0 0 0 0 0 0 0.25 0"/>
<feBlend mode="normal" in2="BackgroundImageFix" result="effect1_dropShadow_1379_47"/>
<feBlend mode="normal" in="SourceGraphic" in2="effect1_dropShadow_1379_47" result="shape"/>
</filter>
</defs>
</svg>
