<svg width="26" height="26" viewBox="0 0 26 26" fill="none" xmlns="http://www.w3.org/2000/svg">
<g clip-path="url(#clip0_1477_8)">
<g filter="url(#filter0_d_1477_8)">
<path d="M25.1338 12.9133C25.1336 12.87 25.1324 12.827 25.1319 12.7838C25.1312 12.7246 25.1305 12.6655 25.1293 12.6065C25.1289 12.592 25.1284 12.5774 25.1281 12.5629C25.0454 9.0157 23.9607 5.81704 22.2634 3.53498C20.7546 1.49561 18.7613 0.180629 16.5538 0C16.5105 0 16.5105 0 16.4671 0C16.4362 0.00274219 16.4054 0.00675391 16.3746 0.0100547C16.2615 0.0040625 16.148 0 16.0338 0H9.96719C7.71336 0 5.65154 1.1767 4.06224 3.11873C4.01705 3.15738 3.97967 3.20384 3.95149 3.25635C2.06034 5.64312 0.867188 9.13093 0.867188 13C0.867188 20.15 4.9405 26 9.96719 26H16.0339C16.1575 26 16.2803 25.9954 16.4026 25.9884C16.4386 25.9923 16.4744 25.9968 16.5105 26C20.6705 25.6533 24.1372 21.4067 24.9605 15.5567C24.9653 15.5114 24.9699 15.4656 24.9747 15.42C25.0788 14.6353 25.1338 13.8265 25.1338 13V12.9133ZM10.8017 19.8226C10.7925 19.7722 10.7732 19.7249 10.7453 19.6828C9.97745 17.7648 9.53382 15.4681 9.53382 13.0001C9.53382 6.60258 12.5545 1.35459 16.4036 0.879531C20.7817 1.16584 24.2672 6.50848 24.2672 13C24.2672 19.4919 20.7813 24.8348 16.4028 25.1206C14.0496 24.8334 12.0302 22.8005 10.8017 19.8226ZM2.27307 17.3155C2.36777 17.2859 2.46248 17.2231 2.55719 17.16L3.1205 16.2933L4.0305 17.2033C4.20382 17.3766 4.46382 17.3766 4.63719 17.2033L5.63387 16.2066L6.67387 17.2466C6.84719 17.4199 7.10719 17.4199 7.28055 17.2466L8.32055 16.2066L9.03266 16.8438C9.18373 17.6169 9.37914 18.3594 9.61482 19.0637L8.84061 18.6766C8.62392 18.5466 8.40729 18.6333 8.27729 18.8066L7.71397 19.6733L6.80397 18.7633C6.63066 18.59 6.37066 18.59 6.19729 18.7633L5.2005 19.76L4.20382 18.7633C4.0305 18.59 3.7705 18.59 3.59714 18.7633L2.97151 19.3889C2.69607 18.7361 2.46152 18.0424 2.27307 17.3155ZM1.7357 13.2133L2.81719 13.8234C2.9905 13.9101 3.20719 13.8667 3.33719 13.7367L4.33387 12.74L5.37387 13.7367C5.54719 13.91 5.80719 13.91 5.98055 13.7367L7.02055 12.6967L8.67922 13.6996C8.70009 14.3228 8.74834 14.9346 8.82273 15.5316L8.49387 15.2534C8.32055 15.1234 8.06055 15.1667 7.93055 15.2967L6.93387 16.2934L5.93719 15.2967C5.76387 15.1234 5.50387 15.1234 5.3305 15.2967L4.33382 16.2934L3.33714 15.2967C3.25045 15.21 3.12045 15.1667 2.99045 15.1667C2.86045 15.1667 2.73045 15.2534 2.64377 15.34L2.03505 16.253C1.85143 15.2824 1.74804 14.2635 1.7357 13.2133ZM3.15123 6.20273L4.11714 6.84668C4.24714 6.93337 4.46382 6.93337 4.59382 6.84668L5.63382 6.15337L6.71714 6.89005C6.84714 6.97673 7.06382 6.97673 7.19382 6.89005L8.27714 6.15337L9.65793 6.82403C9.43007 7.4879 9.23782 8.18578 9.08512 8.9114L8.53709 8.36337C8.36377 8.19005 8.10377 8.19005 7.9304 8.36337L6.93372 9.36005L5.93704 8.36337C5.76372 8.19005 5.50372 8.19005 5.33035 8.36337L4.33382 9.36L3.33714 8.36332C3.25045 8.27663 3.16382 8.23332 3.03382 8.23332C2.90382 8.23332 2.81714 8.27663 2.7305 8.36332L2.22086 8.89058C2.45542 7.93371 2.76935 7.03183 3.15123 6.20273ZM4.54654 3.87583L7.2805 3.07668L8.40719 3.81337C8.53719 3.90005 8.75387 3.90005 8.88387 3.81337L9.96719 3.07668L11.1758 3.66377C10.711 4.37557 10.2996 5.17227 9.95114 6.03703L8.36387 5.24337C8.23387 5.20005 8.06055 5.20005 7.93055 5.28668L6.89055 5.98L5.85055 5.28668C5.72055 5.2 5.50387 5.2 5.37387 5.28668L4.33387 5.98L3.54382 5.42039C3.84693 4.86347 4.18249 4.34637 4.54654 3.87583ZM7.1505 11.7867C6.97719 11.7 6.7605 11.7434 6.6305 11.8734L5.63382 12.8701L4.63714 11.8734C4.46382 11.7001 4.20382 11.7001 4.03045 11.8734L2.94714 12.9567L1.74931 12.267C1.77571 11.619 1.83675 10.9844 1.92994 10.367C1.98371 10.3454 2.03744 10.3131 2.0805 10.2701L3.03382 9.27337L4.0305 10.27C4.20382 10.4433 4.46382 10.4433 4.63719 10.27L5.63387 9.27332L6.63055 10.27C6.80387 10.4433 7.06387 10.4433 7.23724 10.27L8.23392 9.27332L8.79724 9.83663C8.82953 9.86893 8.86488 9.89518 8.90205 9.91545C8.76327 10.8116 8.68349 11.7428 8.66957 12.6981L7.1505 11.7867ZM13.9323 0.866684C13.1019 1.37719 12.3382 2.09285 11.6649 2.97223L10.1405 2.21C10.0105 2.16668 9.83719 2.16668 9.70719 2.25332L8.66719 2.94663L7.62719 2.25332C7.49719 2.16663 7.36719 2.16663 7.23719 2.16663L5.73553 2.59568C6.97191 1.49906 8.41927 0.866633 9.96719 0.866633L13.9323 0.866684ZM3.35461 20.2192L3.9005 19.6733L4.89719 20.67C5.0705 20.8433 5.3305 20.8433 5.50387 20.67L6.5005 19.6733L7.49719 20.67C7.58387 20.7567 7.6705 20.8 7.8005 20.8C7.97382 20.8 8.10382 20.7133 8.14719 20.5833L8.79719 19.5866L10.0487 20.2124C10.3747 20.9819 10.7515 21.694 11.1725 22.3364L10.3571 22.88L9.31714 22.1867C9.18714 22.1 8.97045 22.1 8.84045 22.1867L7.8005 22.88L6.7605 22.1867C6.6305 22.1 6.41382 22.1 6.28382 22.1867L5.21295 22.9006C4.5017 22.1564 3.87405 21.2501 3.35461 20.2192ZM9.96719 25.1333C8.46218 25.1333 7.05219 24.5355 5.83877 23.4945L6.5005 23.0533L7.58382 23.7466C7.71382 23.8333 7.9305 23.8333 8.0605 23.7466L9.1005 23.0533L10.0972 23.79C10.2272 23.8767 10.4439 23.8767 10.5739 23.79L11.6817 23.0515C12.3543 23.9208 13.1171 24.6278 13.9474 25.1334L9.96719 25.1333Z" fill="#354759"/>
</g>
<path d="M16.9012 3.4668C14.6577 3.4668 12.7768 5.97712 12.0375 9.57736C12.0332 9.59848 12.0288 9.61966 12.0245 9.64083C12.0047 9.7395 11.9856 9.83883 11.9675 9.93902C11.9613 9.97335 11.9555 10.0079 11.9495 10.0423C11.9373 10.1127 11.9255 10.1835 11.9141 10.2547C11.9065 10.3022 11.8989 10.3496 11.8918 10.3974C11.8798 10.4768 11.8684 10.5568 11.8575 10.6372C11.851 10.6856 11.8446 10.7341 11.8385 10.7826C11.8293 10.8549 11.8207 10.9276 11.8124 11.0005C11.8058 11.0594 11.7995 11.1184 11.7934 11.1776C11.7866 11.2439 11.7801 11.3106 11.7741 11.3775C11.7701 11.4211 11.7661 11.4647 11.7625 11.5085C11.7544 11.6052 11.7472 11.7023 11.7407 11.7999C11.7383 11.8363 11.7363 11.8728 11.7341 11.9093C11.7289 11.9954 11.7243 12.0818 11.7204 12.1687C11.7192 12.1939 11.7178 12.219 11.7168 12.2443C11.7123 12.353 11.709 12.4623 11.7065 12.5721C11.7058 12.6003 11.7053 12.6283 11.7048 12.6565C11.7026 12.7706 11.7012 12.885 11.7012 13.0002C11.7012 13.1153 11.7026 13.2297 11.7048 13.3438C11.7053 13.3719 11.7058 13.4001 11.7065 13.4282C11.709 13.538 11.7123 13.6473 11.7168 13.756C11.7178 13.7813 11.7192 13.8064 11.7204 13.8317C11.7243 13.9185 11.7289 14.0049 11.7341 14.091C11.7363 14.1275 11.7383 14.164 11.7407 14.2004C11.7472 14.298 11.7544 14.3952 11.7625 14.4918C11.7661 14.5356 11.7701 14.5792 11.7741 14.6229C11.7802 14.6898 11.7866 14.7563 11.7934 14.8227C11.7995 14.8819 11.8058 14.9409 11.8124 14.9998C11.8207 15.0727 11.8293 15.1454 11.8385 15.2177C11.8446 15.2663 11.851 15.3147 11.8575 15.3631C11.8684 15.4435 11.8798 15.5234 11.8918 15.6028C11.899 15.6506 11.9065 15.6981 11.9141 15.7457C11.9255 15.8168 11.9373 15.8875 11.9495 15.9579C11.9555 15.9924 11.9613 16.0269 11.9675 16.0613C11.9856 16.1614 12.0047 16.2608 12.0245 16.3594C12.0288 16.3806 12.0331 16.4018 12.0375 16.423C12.7767 20.0232 14.6576 22.5335 16.9012 22.5335C19.8045 22.5335 22.1012 18.3302 22.1012 13.0002C22.1012 7.67016 19.8045 3.4668 16.9012 3.4668ZM12.6256 14.3706C12.6234 14.3439 12.6209 14.3172 12.6187 14.2904C12.6156 14.2507 12.6129 14.2107 12.61 14.1708C12.606 14.1146 12.6022 14.0583 12.5988 14.0018C12.5969 13.9699 12.5948 13.938 12.5931 13.9061C12.5883 13.818 12.5839 13.7298 12.5804 13.6411C12.5798 13.625 12.5794 13.6088 12.5788 13.5927C12.576 13.5144 12.5738 13.4358 12.5721 13.3571C12.5715 13.3318 12.571 13.3065 12.5705 13.2812C12.569 13.1877 12.5679 13.0942 12.5679 13.0002C12.5679 12.9183 12.5688 12.8366 12.5698 12.755C12.5939 11.1387 12.8549 9.61311 13.2838 8.31575C13.9202 9.40135 14.3012 11.1159 14.3012 13.0001C14.3012 14.8844 13.9202 16.5989 13.2839 17.6845C12.956 16.6928 12.7263 15.5678 12.6256 14.3706ZM16.9012 21.6668C15.6267 21.6668 14.455 20.4838 13.6522 18.6504C14.5701 17.5225 15.1679 15.3737 15.1679 13.0001C15.1679 10.6265 14.57 8.47769 13.6522 7.34984C14.455 5.51643 15.6266 4.33343 16.9012 4.33343C19.2412 4.33343 21.2345 8.32011 21.2345 13.0001C21.2345 17.6801 19.2412 21.6668 16.9012 21.6668Z" fill="#354759"/>
</g>
<defs>
<filter id="filter0_d_1477_8" x="-3.13281" y="0" width="32.2676" height="34" filterUnits="userSpaceOnUse" color-interpolation-filters="sRGB">
<feFlood flood-opacity="0" result="BackgroundImageFix"/>
<feColorMatrix in="SourceAlpha" type="matrix" values="0 0 0 0 0 0 0 0 0 0 0 0 0 0 0 0 0 0 127 0" result="hardAlpha"/>
<feOffset dy="4"/>
<feGaussianBlur stdDeviation="2"/>
<feComposite in2="hardAlpha" operator="out"/>
<feColorMatrix type="matrix" values="0 0 0 0 0 0 0 0 0 0 0 0 0 0 0 0 0 0 0.25 0"/>
<feBlend mode="normal" in2="BackgroundImageFix" result="effect1_dropShadow_1477_8"/>
<feBlend mode="normal" in="SourceGraphic" in2="effect1_dropShadow_1477_8" result="shape"/>
</filter>
<clipPath id="clip0_1477_8">
<rect width="26" height="26" fill="white"/>
</clipPath>
</defs>
</svg>
