<svg width="26" height="26" viewBox="0 0 26 26" fill="none" xmlns="http://www.w3.org/2000/svg">
<g clip-path="url(#clip0_1470_2)">
<g filter="url(#filter0_d_1470_2)">
<path d="M22.6434 26.0003H3.35758C2.7383 26.0003 2.23633 25.4983 2.23633 24.8791C2.23633 24.2598 2.7383 23.7578 3.35758 23.7578H22.6434C23.2627 23.7578 23.7647 24.2598 23.7647 24.8791C23.7647 25.4983 23.2627 26.0003 22.6434 26.0003Z" fill="#354759"/>
<path d="M22.1957 23.7581H3.8068C3.18752 23.7581 2.68555 23.2562 2.68555 22.6369C2.68555 22.0176 3.18752 21.5156 3.8068 21.5156H22.1957C22.8149 21.5156 23.3169 22.0176 23.3169 22.6369C23.3169 23.2562 22.8149 23.7581 22.1957 23.7581Z" fill="#354759"/>
</g>
<g filter="url(#filter1_d_1470_2)">
<path d="M23.741 25.1035H2.25781C2.36176 25.6152 2.81402 26.0005 3.35652 26.0005H22.6424C23.1848 26.0005 23.6371 25.6152 23.741 25.1035Z" fill="#3E5267"/>
<path d="M23.2932 22.8613H2.70703C2.81098 23.3731 3.26324 23.7583 3.80573 23.7583H22.1946C22.737 23.7583 23.1893 23.3731 23.2932 22.8613Z" fill="#3E5267"/>
</g>
<g filter="url(#filter2_d_1470_2)">
<path d="M21.7459 21.514H4.25406C3.63479 21.514 3.13281 21.012 3.13281 20.3927C3.13281 19.7735 3.63479 19.2715 4.25406 19.2715H21.7459C22.3652 19.2715 22.8672 19.7735 22.8672 20.3927C22.8671 21.012 22.3651 21.514 21.7459 21.514Z" fill="#354759"/>
<path d="M21.2981 19.2718H4.70328C4.084 19.2718 3.58203 18.7698 3.58203 18.1505C3.58203 17.5313 4.084 17.0293 4.70328 17.0293H21.2981C21.9174 17.0293 22.4193 17.5313 22.4193 18.1505C22.4193 18.7698 21.9174 19.2718 21.2981 19.2718Z" fill="#354759"/>
</g>
<g filter="url(#filter3_d_1470_2)">
<path d="M22.8454 20.6172H3.15625C3.2602 21.129 3.71246 21.5142 4.25495 21.5142H21.7468C22.2892 21.5142 22.7415 21.1289 22.8454 20.6172Z" fill="#3E5267"/>
</g>
<g filter="url(#filter4_d_1470_2)">
<path d="M9.6301 17.0304C9.01676 16.4759 8.62773 15.6776 8.62773 14.7879C8.62773 13.3705 9.24203 12.0252 10.3132 11.0969L14.0109 7.87541L12.6669 6.36914L8.99188 9.5711C7.47748 10.8835 6.60938 12.7849 6.60938 14.7879C6.60938 15.5687 6.7966 16.3361 7.14248 17.0304H9.6301Z" fill="#354759"/>
</g>
<g filter="url(#filter5_d_1470_2)">
<path d="M12.0703 6.88844L13.3923 8.41381L13.9727 7.90823L12.6506 6.38281L12.0703 6.88844Z" fill="#354759"/>
</g>
<g filter="url(#filter6_d_1470_2)">
<path d="M14.163 8.15661L12.4006 6.12307C12.2384 5.9359 12.2586 5.65259 12.4458 5.49039L13.4239 4.64275C13.6111 4.48056 13.8944 4.50082 14.0566 4.68795L15.819 6.72148C15.9812 6.90866 15.961 7.19197 15.7738 7.35416L14.7956 8.20181C14.6084 8.364 14.3252 8.34379 14.163 8.15661Z" fill="#354759"/>
</g>
<g filter="url(#filter7_d_1470_2)">
<path d="M15.0242 7.97621L12.6885 5.28125L12.4458 5.49159C12.2586 5.65383 12.2384 5.93709 12.4006 6.12427L14.163 8.1578C14.3252 8.34498 14.6085 8.36525 14.7957 8.20305L15.0417 7.98977C15.0365 7.98413 15.0292 7.982 15.0242 7.97621Z" fill="#354759"/>
</g>
<g filter="url(#filter8_d_1470_2)">
<path d="M22.3976 18.375H3.60547C3.70942 18.8868 4.16168 19.272 4.70417 19.272H21.299C21.8414 19.272 22.2937 18.8867 22.3976 18.375Z" fill="#3E5267"/>
<path d="M10.0854 18.1505C10.0854 17.5313 10.5874 17.0293 11.2066 17.0293H4.70328C4.084 17.0293 3.58203 17.5313 3.58203 18.1505C3.58203 18.7698 4.084 19.2718 4.70328 19.2718H11.2067C10.5875 19.2718 10.0854 18.7698 10.0854 18.1505Z" fill="#3E5267"/>
</g>
<g filter="url(#filter9_d_1470_2)">
<path d="M10.1069 18.375H3.60352C3.60524 18.3835 3.6089 18.3912 3.61083 18.3997C3.62444 18.4595 3.64206 18.5178 3.66481 18.5736C3.67415 18.5966 3.68675 18.6176 3.69751 18.6397C3.71676 18.6791 3.73641 18.7181 3.75992 18.7547C3.7747 18.7777 3.79166 18.7991 3.80806 18.821C3.83249 18.8535 3.85783 18.8852 3.88561 18.9149C3.90465 18.9353 3.92491 18.9545 3.94543 18.9734C3.97503 19.0006 4.00611 19.0262 4.03856 19.0502C4.06095 19.0667 4.08345 19.0829 4.10706 19.0978C4.14215 19.1199 4.17917 19.1392 4.2168 19.1573C4.24082 19.1689 4.26438 19.1813 4.28937 19.1912C4.33218 19.2082 4.37712 19.2208 4.42236 19.2324C4.44466 19.2382 4.46614 19.2461 4.48904 19.2505C4.5582 19.2638 4.62925 19.2719 4.70232 19.2719H11.2057C10.6631 19.272 10.2108 18.8867 10.1069 18.375Z" fill="#354759"/>
</g>
<g filter="url(#filter10_d_1470_2)">
<path d="M9.63616 20.3927C9.63616 19.7735 10.1381 19.2715 10.7574 19.2715H4.25406C3.63479 19.2715 3.13281 19.7735 3.13281 20.3927C3.13281 21.012 3.63479 21.514 4.25406 21.514H10.7574C10.1382 21.514 9.63616 21.012 9.63616 20.3927Z" fill="#3E5267"/>
</g>
<g filter="url(#filter11_d_1470_2)">
<path d="M9.6596 20.6172H3.15625C3.15798 20.6257 3.16163 20.6334 3.16356 20.6419C3.17717 20.7017 3.19479 20.76 3.21754 20.8158C3.22689 20.8387 3.23948 20.8598 3.25025 20.8819C3.26949 20.9213 3.28914 20.9603 3.31266 20.9969C3.32743 21.0199 3.34439 21.0413 3.3608 21.0631C3.38522 21.0956 3.41056 21.1274 3.43834 21.1571C3.45738 21.1775 3.47764 21.1967 3.49816 21.2155C3.52777 21.2428 3.55884 21.2684 3.59129 21.2924C3.61369 21.3089 3.63618 21.3251 3.6598 21.34C3.69489 21.3621 3.73191 21.3813 3.76953 21.3995C3.79355 21.4111 3.81712 21.4235 3.8421 21.4333C3.88491 21.4504 3.92985 21.4629 3.9751 21.4746C3.99739 21.4804 4.01887 21.4882 4.04177 21.4927C4.11094 21.506 4.18198 21.5141 4.25505 21.5141H10.7583C10.2158 21.5142 9.7635 21.1289 9.6596 20.6172Z" fill="#354759"/>
</g>
<g filter="url(#filter12_d_1470_2)">
<path d="M9.18695 22.6369C9.18695 22.0176 9.68892 21.5156 10.3082 21.5156H3.80484C3.18557 21.5156 2.68359 22.0176 2.68359 22.6369C2.68359 23.2561 3.18557 23.7581 3.80484 23.7581H10.3082C9.68897 23.7581 9.18695 23.2561 9.18695 22.6369Z" fill="#3E5267"/>
</g>
<g filter="url(#filter13_d_1470_2)">
<path d="M9.21043 22.8613H2.70703C2.70876 22.8699 2.71241 22.8776 2.71434 22.886C2.72795 22.9458 2.74557 23.0041 2.76832 23.0599C2.77767 23.0829 2.79026 23.1039 2.80103 23.1261C2.82027 23.1654 2.83993 23.2044 2.86344 23.241C2.87821 23.2641 2.89518 23.2854 2.91158 23.3073C2.936 23.3398 2.96134 23.3715 2.98912 23.4012C3.00816 23.4216 3.02843 23.4408 3.04894 23.4597C3.07855 23.487 3.10963 23.5125 3.14207 23.5366C3.16447 23.5531 3.18696 23.5693 3.21058 23.5841C3.24567 23.6062 3.28269 23.6255 3.32032 23.6436C3.34434 23.6552 3.3679 23.6676 3.39288 23.6775C3.43569 23.6945 3.48063 23.7071 3.52588 23.7188C3.54817 23.7246 3.56965 23.7324 3.59255 23.7368C3.66172 23.7502 3.73276 23.7583 3.80584 23.7583H10.3092C9.76664 23.7583 9.31433 23.3731 9.21043 22.8613Z" fill="#354759"/>
</g>
<g filter="url(#filter14_d_1470_2)">
<path d="M8.73968 24.8791C8.73968 24.2598 9.24165 23.7578 9.86093 23.7578H3.35758C2.7383 23.7578 2.23633 24.2598 2.23633 24.8791C2.23633 25.4983 2.7383 26.0003 3.35758 26.0003H9.86098C9.2417 26.0004 8.73968 25.4983 8.73968 24.8791Z" fill="#3E5267"/>
</g>
<g filter="url(#filter15_d_1470_2)">
<path d="M8.76121 25.1035H2.25781C2.25954 25.112 2.2632 25.1198 2.26513 25.1282C2.27873 25.188 2.29636 25.2463 2.31911 25.3021C2.32845 25.3251 2.34104 25.3461 2.35181 25.3682C2.37105 25.4076 2.39071 25.4466 2.41422 25.4832C2.429 25.5063 2.44596 25.5276 2.46236 25.5495C2.48679 25.582 2.51213 25.6137 2.5399 25.6434C2.55895 25.6638 2.57921 25.683 2.59972 25.7019C2.62933 25.7291 2.66041 25.7547 2.69286 25.7788C2.71525 25.7953 2.73775 25.8115 2.76136 25.8263C2.79645 25.8484 2.83347 25.8677 2.8711 25.8858C2.89512 25.8974 2.91868 25.9098 2.94366 25.9197C2.98647 25.9367 3.03141 25.9493 3.07666 25.961C3.09895 25.9667 3.12043 25.9746 3.14334 25.979C3.2125 25.9923 3.28354 26.0005 3.35662 26.0005H9.86002C9.31742 26.0005 8.86511 25.6152 8.76121 25.1035Z" fill="#354759"/>
</g>
<g filter="url(#filter16_d_1470_2)">
<path d="M8.949 16.1328H6.80273C6.88947 16.4408 6.99824 16.7426 7.14129 17.0298H9.62881C9.34941 16.7773 9.11973 16.4722 8.949 16.1328Z" fill="#3E5267"/>
</g>
</g>
<defs>
<filter id="filter0_d_1470_2" x="-1.76367" y="21.5156" width="29.5293" height="12.4844" filterUnits="userSpaceOnUse" color-interpolation-filters="sRGB">
<feFlood flood-opacity="0" result="BackgroundImageFix"/>
<feColorMatrix in="SourceAlpha" type="matrix" values="0 0 0 0 0 0 0 0 0 0 0 0 0 0 0 0 0 0 127 0" result="hardAlpha"/>
<feOffset dy="4"/>
<feGaussianBlur stdDeviation="2"/>
<feComposite in2="hardAlpha" operator="out"/>
<feColorMatrix type="matrix" values="0 0 0 0 0 0 0 0 0 0 0 0 0 0 0 0 0 0 0.25 0"/>
<feBlend mode="normal" in2="BackgroundImageFix" result="effect1_dropShadow_1470_2"/>
<feBlend mode="normal" in="SourceGraphic" in2="effect1_dropShadow_1470_2" result="shape"/>
</filter>
<filter id="filter1_d_1470_2" x="-1.74219" y="22.8613" width="29.4824" height="11.1387" filterUnits="userSpaceOnUse" color-interpolation-filters="sRGB">
<feFlood flood-opacity="0" result="BackgroundImageFix"/>
<feColorMatrix in="SourceAlpha" type="matrix" values="0 0 0 0 0 0 0 0 0 0 0 0 0 0 0 0 0 0 127 0" result="hardAlpha"/>
<feOffset dy="4"/>
<feGaussianBlur stdDeviation="2"/>
<feComposite in2="hardAlpha" operator="out"/>
<feColorMatrix type="matrix" values="0 0 0 0 0 0 0 0 0 0 0 0 0 0 0 0 0 0 0.25 0"/>
<feBlend mode="normal" in2="BackgroundImageFix" result="effect1_dropShadow_1470_2"/>
<feBlend mode="normal" in="SourceGraphic" in2="effect1_dropShadow_1470_2" result="shape"/>
</filter>
<filter id="filter2_d_1470_2" x="-0.867188" y="17.0293" width="27.7344" height="12.4844" filterUnits="userSpaceOnUse" color-interpolation-filters="sRGB">
<feFlood flood-opacity="0" result="BackgroundImageFix"/>
<feColorMatrix in="SourceAlpha" type="matrix" values="0 0 0 0 0 0 0 0 0 0 0 0 0 0 0 0 0 0 127 0" result="hardAlpha"/>
<feOffset dy="4"/>
<feGaussianBlur stdDeviation="2"/>
<feComposite in2="hardAlpha" operator="out"/>
<feColorMatrix type="matrix" values="0 0 0 0 0 0 0 0 0 0 0 0 0 0 0 0 0 0 0.25 0"/>
<feBlend mode="normal" in2="BackgroundImageFix" result="effect1_dropShadow_1470_2"/>
<feBlend mode="normal" in="SourceGraphic" in2="effect1_dropShadow_1470_2" result="shape"/>
</filter>
<filter id="filter3_d_1470_2" x="-0.84375" y="20.6172" width="27.6895" height="8.89648" filterUnits="userSpaceOnUse" color-interpolation-filters="sRGB">
<feFlood flood-opacity="0" result="BackgroundImageFix"/>
<feColorMatrix in="SourceAlpha" type="matrix" values="0 0 0 0 0 0 0 0 0 0 0 0 0 0 0 0 0 0 127 0" result="hardAlpha"/>
<feOffset dy="4"/>
<feGaussianBlur stdDeviation="2"/>
<feComposite in2="hardAlpha" operator="out"/>
<feColorMatrix type="matrix" values="0 0 0 0 0 0 0 0 0 0 0 0 0 0 0 0 0 0 0.25 0"/>
<feBlend mode="normal" in2="BackgroundImageFix" result="effect1_dropShadow_1470_2"/>
<feBlend mode="normal" in="SourceGraphic" in2="effect1_dropShadow_1470_2" result="shape"/>
</filter>
<filter id="filter4_d_1470_2" x="2.60938" y="6.36914" width="15.4023" height="18.6621" filterUnits="userSpaceOnUse" color-interpolation-filters="sRGB">
<feFlood flood-opacity="0" result="BackgroundImageFix"/>
<feColorMatrix in="SourceAlpha" type="matrix" values="0 0 0 0 0 0 0 0 0 0 0 0 0 0 0 0 0 0 127 0" result="hardAlpha"/>
<feOffset dy="4"/>
<feGaussianBlur stdDeviation="2"/>
<feComposite in2="hardAlpha" operator="out"/>
<feColorMatrix type="matrix" values="0 0 0 0 0 0 0 0 0 0 0 0 0 0 0 0 0 0 0.25 0"/>
<feBlend mode="normal" in2="BackgroundImageFix" result="effect1_dropShadow_1470_2"/>
<feBlend mode="normal" in="SourceGraphic" in2="effect1_dropShadow_1470_2" result="shape"/>
</filter>
<filter id="filter5_d_1470_2" x="8.07031" y="6.38281" width="9.90234" height="10.0312" filterUnits="userSpaceOnUse" color-interpolation-filters="sRGB">
<feFlood flood-opacity="0" result="BackgroundImageFix"/>
<feColorMatrix in="SourceAlpha" type="matrix" values="0 0 0 0 0 0 0 0 0 0 0 0 0 0 0 0 0 0 127 0" result="hardAlpha"/>
<feOffset dy="4"/>
<feGaussianBlur stdDeviation="2"/>
<feComposite in2="hardAlpha" operator="out"/>
<feColorMatrix type="matrix" values="0 0 0 0 0 0 0 0 0 0 0 0 0 0 0 0 0 0 0.25 0"/>
<feBlend mode="normal" in2="BackgroundImageFix" result="effect1_dropShadow_1470_2"/>
<feBlend mode="normal" in="SourceGraphic" in2="effect1_dropShadow_1470_2" result="shape"/>
</filter>
<filter id="filter6_d_1470_2" x="8.29102" y="4.5332" width="11.6367" height="11.7773" filterUnits="userSpaceOnUse" color-interpolation-filters="sRGB">
<feFlood flood-opacity="0" result="BackgroundImageFix"/>
<feColorMatrix in="SourceAlpha" type="matrix" values="0 0 0 0 0 0 0 0 0 0 0 0 0 0 0 0 0 0 127 0" result="hardAlpha"/>
<feOffset dy="4"/>
<feGaussianBlur stdDeviation="2"/>
<feComposite in2="hardAlpha" operator="out"/>
<feColorMatrix type="matrix" values="0 0 0 0 0 0 0 0 0 0 0 0 0 0 0 0 0 0 0.25 0"/>
<feBlend mode="normal" in2="BackgroundImageFix" result="effect1_dropShadow_1470_2"/>
<feBlend mode="normal" in="SourceGraphic" in2="effect1_dropShadow_1470_2" result="shape"/>
</filter>
<filter id="filter7_d_1470_2" x="8.29102" y="5.28125" width="10.75" height="11.0312" filterUnits="userSpaceOnUse" color-interpolation-filters="sRGB">
<feFlood flood-opacity="0" result="BackgroundImageFix"/>
<feColorMatrix in="SourceAlpha" type="matrix" values="0 0 0 0 0 0 0 0 0 0 0 0 0 0 0 0 0 0 127 0" result="hardAlpha"/>
<feOffset dy="4"/>
<feGaussianBlur stdDeviation="2"/>
<feComposite in2="hardAlpha" operator="out"/>
<feColorMatrix type="matrix" values="0 0 0 0 0 0 0 0 0 0 0 0 0 0 0 0 0 0 0.25 0"/>
<feBlend mode="normal" in2="BackgroundImageFix" result="effect1_dropShadow_1470_2"/>
<feBlend mode="normal" in="SourceGraphic" in2="effect1_dropShadow_1470_2" result="shape"/>
</filter>
<filter id="filter8_d_1470_2" x="-0.417969" y="17.0293" width="26.8164" height="10.2422" filterUnits="userSpaceOnUse" color-interpolation-filters="sRGB">
<feFlood flood-opacity="0" result="BackgroundImageFix"/>
<feColorMatrix in="SourceAlpha" type="matrix" values="0 0 0 0 0 0 0 0 0 0 0 0 0 0 0 0 0 0 127 0" result="hardAlpha"/>
<feOffset dy="4"/>
<feGaussianBlur stdDeviation="2"/>
<feComposite in2="hardAlpha" operator="out"/>
<feColorMatrix type="matrix" values="0 0 0 0 0 0 0 0 0 0 0 0 0 0 0 0 0 0 0.25 0"/>
<feBlend mode="normal" in2="BackgroundImageFix" result="effect1_dropShadow_1470_2"/>
<feBlend mode="normal" in="SourceGraphic" in2="effect1_dropShadow_1470_2" result="shape"/>
</filter>
<filter id="filter9_d_1470_2" x="-0.396484" y="18.375" width="15.6016" height="8.89648" filterUnits="userSpaceOnUse" color-interpolation-filters="sRGB">
<feFlood flood-opacity="0" result="BackgroundImageFix"/>
<feColorMatrix in="SourceAlpha" type="matrix" values="0 0 0 0 0 0 0 0 0 0 0 0 0 0 0 0 0 0 127 0" result="hardAlpha"/>
<feOffset dy="4"/>
<feGaussianBlur stdDeviation="2"/>
<feComposite in2="hardAlpha" operator="out"/>
<feColorMatrix type="matrix" values="0 0 0 0 0 0 0 0 0 0 0 0 0 0 0 0 0 0 0.25 0"/>
<feBlend mode="normal" in2="BackgroundImageFix" result="effect1_dropShadow_1470_2"/>
<feBlend mode="normal" in="SourceGraphic" in2="effect1_dropShadow_1470_2" result="shape"/>
</filter>
<filter id="filter10_d_1470_2" x="-0.867188" y="19.2715" width="15.625" height="10.2422" filterUnits="userSpaceOnUse" color-interpolation-filters="sRGB">
<feFlood flood-opacity="0" result="BackgroundImageFix"/>
<feColorMatrix in="SourceAlpha" type="matrix" values="0 0 0 0 0 0 0 0 0 0 0 0 0 0 0 0 0 0 127 0" result="hardAlpha"/>
<feOffset dy="4"/>
<feGaussianBlur stdDeviation="2"/>
<feComposite in2="hardAlpha" operator="out"/>
<feColorMatrix type="matrix" values="0 0 0 0 0 0 0 0 0 0 0 0 0 0 0 0 0 0 0.25 0"/>
<feBlend mode="normal" in2="BackgroundImageFix" result="effect1_dropShadow_1470_2"/>
<feBlend mode="normal" in="SourceGraphic" in2="effect1_dropShadow_1470_2" result="shape"/>
</filter>
<filter id="filter11_d_1470_2" x="-0.84375" y="20.6172" width="15.6016" height="8.89648" filterUnits="userSpaceOnUse" color-interpolation-filters="sRGB">
<feFlood flood-opacity="0" result="BackgroundImageFix"/>
<feColorMatrix in="SourceAlpha" type="matrix" values="0 0 0 0 0 0 0 0 0 0 0 0 0 0 0 0 0 0 127 0" result="hardAlpha"/>
<feOffset dy="4"/>
<feGaussianBlur stdDeviation="2"/>
<feComposite in2="hardAlpha" operator="out"/>
<feColorMatrix type="matrix" values="0 0 0 0 0 0 0 0 0 0 0 0 0 0 0 0 0 0 0.25 0"/>
<feBlend mode="normal" in2="BackgroundImageFix" result="effect1_dropShadow_1470_2"/>
<feBlend mode="normal" in="SourceGraphic" in2="effect1_dropShadow_1470_2" result="shape"/>
</filter>
<filter id="filter12_d_1470_2" x="-1.31641" y="21.5156" width="15.625" height="10.2422" filterUnits="userSpaceOnUse" color-interpolation-filters="sRGB">
<feFlood flood-opacity="0" result="BackgroundImageFix"/>
<feColorMatrix in="SourceAlpha" type="matrix" values="0 0 0 0 0 0 0 0 0 0 0 0 0 0 0 0 0 0 127 0" result="hardAlpha"/>
<feOffset dy="4"/>
<feGaussianBlur stdDeviation="2"/>
<feComposite in2="hardAlpha" operator="out"/>
<feColorMatrix type="matrix" values="0 0 0 0 0 0 0 0 0 0 0 0 0 0 0 0 0 0 0.25 0"/>
<feBlend mode="normal" in2="BackgroundImageFix" result="effect1_dropShadow_1470_2"/>
<feBlend mode="normal" in="SourceGraphic" in2="effect1_dropShadow_1470_2" result="shape"/>
</filter>
<filter id="filter13_d_1470_2" x="-1.29297" y="22.8613" width="15.6016" height="8.89648" filterUnits="userSpaceOnUse" color-interpolation-filters="sRGB">
<feFlood flood-opacity="0" result="BackgroundImageFix"/>
<feColorMatrix in="SourceAlpha" type="matrix" values="0 0 0 0 0 0 0 0 0 0 0 0 0 0 0 0 0 0 127 0" result="hardAlpha"/>
<feOffset dy="4"/>
<feGaussianBlur stdDeviation="2"/>
<feComposite in2="hardAlpha" operator="out"/>
<feColorMatrix type="matrix" values="0 0 0 0 0 0 0 0 0 0 0 0 0 0 0 0 0 0 0.25 0"/>
<feBlend mode="normal" in2="BackgroundImageFix" result="effect1_dropShadow_1470_2"/>
<feBlend mode="normal" in="SourceGraphic" in2="effect1_dropShadow_1470_2" result="shape"/>
</filter>
<filter id="filter14_d_1470_2" x="-1.76367" y="23.7578" width="15.625" height="10.2422" filterUnits="userSpaceOnUse" color-interpolation-filters="sRGB">
<feFlood flood-opacity="0" result="BackgroundImageFix"/>
<feColorMatrix in="SourceAlpha" type="matrix" values="0 0 0 0 0 0 0 0 0 0 0 0 0 0 0 0 0 0 127 0" result="hardAlpha"/>
<feOffset dy="4"/>
<feGaussianBlur stdDeviation="2"/>
<feComposite in2="hardAlpha" operator="out"/>
<feColorMatrix type="matrix" values="0 0 0 0 0 0 0 0 0 0 0 0 0 0 0 0 0 0 0.25 0"/>
<feBlend mode="normal" in2="BackgroundImageFix" result="effect1_dropShadow_1470_2"/>
<feBlend mode="normal" in="SourceGraphic" in2="effect1_dropShadow_1470_2" result="shape"/>
</filter>
<filter id="filter15_d_1470_2" x="-1.74219" y="25.1035" width="15.6016" height="8.89648" filterUnits="userSpaceOnUse" color-interpolation-filters="sRGB">
<feFlood flood-opacity="0" result="BackgroundImageFix"/>
<feColorMatrix in="SourceAlpha" type="matrix" values="0 0 0 0 0 0 0 0 0 0 0 0 0 0 0 0 0 0 127 0" result="hardAlpha"/>
<feOffset dy="4"/>
<feGaussianBlur stdDeviation="2"/>
<feComposite in2="hardAlpha" operator="out"/>
<feColorMatrix type="matrix" values="0 0 0 0 0 0 0 0 0 0 0 0 0 0 0 0 0 0 0.25 0"/>
<feBlend mode="normal" in2="BackgroundImageFix" result="effect1_dropShadow_1470_2"/>
<feBlend mode="normal" in="SourceGraphic" in2="effect1_dropShadow_1470_2" result="shape"/>
</filter>
<filter id="filter16_d_1470_2" x="2.80273" y="16.1328" width="10.8262" height="8.89648" filterUnits="userSpaceOnUse" color-interpolation-filters="sRGB">
<feFlood flood-opacity="0" result="BackgroundImageFix"/>
<feColorMatrix in="SourceAlpha" type="matrix" values="0 0 0 0 0 0 0 0 0 0 0 0 0 0 0 0 0 0 127 0" result="hardAlpha"/>
<feOffset dy="4"/>
<feGaussianBlur stdDeviation="2"/>
<feComposite in2="hardAlpha" operator="out"/>
<feColorMatrix type="matrix" values="0 0 0 0 0 0 0 0 0 0 0 0 0 0 0 0 0 0 0.25 0"/>
<feBlend mode="normal" in2="BackgroundImageFix" result="effect1_dropShadow_1470_2"/>
<feBlend mode="normal" in="SourceGraphic" in2="effect1_dropShadow_1470_2" result="shape"/>
</filter>
<clipPath id="clip0_1470_2">
<rect width="26" height="26" fill="white"/>
</clipPath>
</defs>
</svg>
