<svg width="34" height="34" viewBox="0 0 34 34" fill="none" xmlns="http://www.w3.org/2000/svg">
<g filter="url(#filter0_d_1379_69)">
<mask id="path-1-inside-1_1379_69" fill="white">
<path d="M29.8414 24.047L18.0652 0.611397C17.9518 0.423401 17.7979 0.269187 17.6172 0.162508C17.4365 0.0558288 17.2347 0 17.0296 0C16.8245 0 16.6226 0.0558288 16.4419 0.162508C16.2612 0.269187 16.1074 0.423401 15.994 0.611397L4.15865 24.047C4.05554 24.2434 4.00085 24.4661 4.00001 24.6929C3.99916 24.9196 4.05219 25.1428 4.15383 25.3401C4.25548 25.5374 4.40221 25.7021 4.57951 25.8178C4.75681 25.9336 4.95851 25.9964 5.16465 26H28.8353C29.0415 25.9964 29.2432 25.9336 29.4205 25.8178C29.5978 25.7021 29.7445 25.5374 29.8462 25.3401C29.9478 25.1428 30.0008 24.9196 30 24.6929C29.9991 24.4661 29.9445 24.2434 29.8414 24.047ZM19.8405 14.6728L14.7513 21.3129C14.7199 21.3733 14.668 21.4175 14.6069 21.4359C14.5459 21.4542 14.4807 21.4451 14.4258 21.4105C14.3709 21.376 14.3307 21.3189 14.314 21.2517C14.2974 21.1846 14.3057 21.1129 14.337 21.0525L15.8165 16.2352H13.4494C13.3395 16.2352 13.2318 16.2015 13.1383 16.1379C13.0448 16.0744 12.9693 15.9834 12.9201 15.8753C12.871 15.7672 12.8502 15.6461 12.86 15.5257C12.8699 15.4053 12.91 15.2903 12.976 15.1936L18.0652 8.48837C18.2427 8.29308 18.5978 8.55347 18.4794 8.81387L17 13.6312H19.3671C19.477 13.6312 19.5847 13.6649 19.6782 13.7284C19.7717 13.792 19.8472 13.8829 19.8964 13.991C19.9455 14.0992 19.9663 14.2202 19.9564 14.3406C19.9466 14.4611 19.9064 14.5761 19.8405 14.6728Z"/>
</mask>
<path d="M29.8414 24.047L14.9491 31.5302L15.0157 31.6629L15.0848 31.7943L29.8414 24.047ZM18.0652 0.611397L32.9574 -6.87181L32.6693 -7.44523L32.3379 -7.99479L18.0652 0.611397ZM17.0296 0V-16.6667V0ZM15.994 0.611397L1.72125 -7.99479L1.39855 -7.45962L1.11684 -6.90179L15.994 0.611397ZM4.15865 24.047L18.9153 31.7943L18.9765 31.6777L19.0358 31.5602L4.15865 24.047ZM5.16465 26L4.87219 42.6641L5.01841 42.6667H5.16465V26ZM28.8353 26V42.6667H28.9816L29.1278 42.6641L28.8353 26ZM19.8405 14.6728L33.0687 24.8114L33.3504 24.4439L33.6112 24.0613L19.8405 14.6728ZM14.7513 21.3129L1.52303 11.1743L0.634373 12.3338L-0.0390258 13.6301L14.7513 21.3129ZM14.337 21.0525L29.1274 28.7352L29.825 27.3921L30.2693 25.9453L14.337 21.0525ZM15.8165 16.2352L31.7487 21.128L38.3698 -0.431513H15.8165V16.2352ZM12.976 15.1936L-0.299822 5.11732L-0.556045 5.4549L-0.79478 5.80507L12.976 15.1936ZM18.0652 8.48837L5.73245 -2.72241L5.23578 -2.17603L4.78938 -1.58787L18.0652 8.48837ZM18.4794 8.81387L3.30646 1.91756L2.86228 2.89483L2.54713 3.92101L18.4794 8.81387ZM17 13.6312L1.06772 8.73833L-5.55329 30.2979H17V13.6312ZM44.7336 16.5638L32.9574 -6.87181L3.17292 8.09461L14.9491 31.5302L44.7336 16.5638ZM32.3379 -7.99479C30.8659 -10.436 28.7621 -12.6123 26.0905 -14.1896L9.144 14.5146C6.83377 13.1507 5.03774 11.2828 3.79243 9.21758L32.3379 -7.99479ZM26.0905 -14.1896C23.4057 -15.7746 20.287 -16.6667 17.0296 -16.6667V16.6667C14.1823 16.6667 11.4674 15.8863 9.144 14.5146L26.0905 -14.1896ZM17.0296 -16.6667C13.7721 -16.6667 10.6535 -15.7746 7.9687 -14.1896L24.9152 14.5146C22.5918 15.8863 19.8769 16.6667 17.0296 16.6667V-16.6667ZM7.9687 -14.1896C5.29711 -12.6123 3.19329 -10.4361 1.72125 -7.99479L30.2667 9.21758C29.0214 11.2829 27.2254 13.1507 24.9152 14.5146L7.9687 -14.1896ZM1.11684 -6.90179L-10.7185 16.5338L19.0358 31.5602L30.8712 8.12458L1.11684 -6.90179ZM-10.5979 16.2997C-11.9746 18.9219 -12.656 21.7884 -12.6665 24.6308L20.6666 24.7549C20.6577 27.1437 20.0857 29.5649 18.9153 31.7943L-10.5979 16.2997ZM-12.6665 24.6308C-12.6771 27.4731 -12.0172 30.3426 -10.6626 32.9723L18.9703 17.7079C20.1216 19.9429 20.6755 22.3662 20.6666 24.7549L-12.6665 24.6308ZM-10.6626 32.9723C-9.30536 35.6071 -7.24484 38.0023 -4.53164 39.7737L13.6907 11.862C16.0493 13.4019 17.8163 15.4677 18.9703 17.7079L-10.6626 32.9723ZM-4.53164 39.7737C-1.80285 41.5552 1.44221 42.6039 4.87219 42.6641L5.45712 9.3359C8.47482 9.38886 11.3165 10.312 13.6907 11.862L-4.53164 39.7737ZM5.16465 42.6667H28.8353V9.33333H5.16465V42.6667ZM29.1278 42.6641C32.5578 42.6039 35.8028 41.5552 38.5316 39.7737L20.3093 11.862C22.6835 10.312 25.5252 9.38886 28.5429 9.3359L29.1278 42.6641ZM38.5316 39.7737C41.2449 38.0023 43.3054 35.6071 44.6626 32.9723L15.0297 17.7079C16.1837 15.4677 17.9507 13.4019 20.3093 11.862L38.5316 39.7737ZM44.6626 32.9723C46.0172 30.3426 46.6771 27.473 46.6665 24.6308L13.3334 24.7549C13.3245 22.3663 13.8784 19.9429 15.0297 17.7079L44.6626 32.9723ZM46.6665 24.6308C46.656 21.7885 45.9746 18.922 44.5979 16.2997L15.0848 31.7943C13.9143 29.5649 13.3423 27.1436 13.3334 24.7549L46.6665 24.6308ZM6.61223 4.53419L1.52303 11.1743L27.9795 31.4515L33.0687 24.8114L6.61223 4.53419ZM-0.0390258 13.6301C1.84831 9.99676 5.24412 6.84428 9.81749 5.47217L19.3964 37.3995C24.0918 35.9908 27.5915 32.7498 29.5416 28.9956L-0.0390258 13.6301ZM9.81749 5.47217C14.4585 4.07977 19.3629 4.82792 23.2958 7.30019L5.55584 35.5209C9.59859 38.0622 14.6333 38.8286 19.3964 37.3995L9.81749 5.47217ZM23.2958 7.30019C27.1493 9.72255 29.5458 13.4288 30.491 17.2412L-1.86292 25.2623C-0.88446 29.209 1.5925 33.0294 5.55584 35.5209L23.2958 7.30019ZM30.491 17.2412C31.4331 21.0416 30.9981 25.1338 29.1274 28.7352L-0.453264 13.3697C-2.38679 17.092 -2.83839 21.3276 -1.86292 25.2623L30.491 17.2412ZM30.2693 25.9453L31.7487 21.128L-0.115819 11.3423L-1.59524 16.1596L30.2693 25.9453ZM15.8165 -0.431513H13.4494V32.9018H15.8165V-0.431513ZM13.4494 -0.431513C16.7818 -0.431513 19.9228 0.596757 22.509 2.35508L3.76753 29.9208C6.54072 31.8062 9.89715 32.9018 13.4494 32.9018V-0.431513ZM22.509 2.35508C25.0758 4.10017 26.9438 6.45043 28.0931 8.97898L-2.25285 22.7716C-1.0053 25.5164 1.01382 28.0486 3.76753 29.9208L22.509 2.35508ZM28.0931 8.97898C29.2397 11.5018 29.6889 14.228 29.471 16.8872L-3.75094 14.1642C-3.98865 17.0642 -3.49781 20.0325 -2.25285 22.7716L28.0931 8.97898ZM29.471 16.8872C29.253 19.547 28.3601 22.2156 26.7467 24.5821L-0.79478 5.80507C-2.54003 8.36495 -3.51319 11.2636 -3.75094 14.1642L29.471 16.8872ZM26.2518 25.2698L31.341 18.5646L4.78938 -1.58787L-0.299822 5.11732L26.2518 25.2698ZM30.3979 19.6992C22.5959 28.282 12.2989 24.7963 8.28517 21.7394C4.0059 18.4804 -0.707993 10.75 3.30646 1.91756L33.6524 15.7102C37.7852 6.61737 32.9529 -1.37344 28.4813 -4.77896C24.2753 -7.98227 13.712 -11.5006 5.73245 -2.72241L30.3979 19.6992ZM2.54713 3.92101L1.06772 8.73833L32.9323 18.5241L34.4117 13.7067L2.54713 3.92101ZM17 30.2979H19.3671V-3.03547H17V30.2979ZM19.3671 30.2979C16.0346 30.2979 12.8936 29.2696 10.3074 27.5113L29.0489 -0.0544252C26.2757 -1.93987 22.9193 -3.03547 19.3671 -3.03547V30.2979ZM10.3074 27.5113C7.74082 25.7663 5.87273 23.4161 4.7234 20.8874L35.0693 7.09474C33.8217 4.34977 31.8025 1.81769 29.0489 -0.0544252L10.3074 27.5113ZM4.7234 20.8874C3.57673 18.3645 3.12752 15.6383 3.34549 12.9791L36.5674 15.7022C36.8051 12.8022 36.3143 9.83387 35.0693 7.09474L4.7234 20.8874ZM3.34549 12.9791C3.56351 10.3193 4.45639 7.65066 6.06972 5.28428L33.6112 24.0613C35.3565 21.5015 36.3296 18.6028 36.5674 15.7022L3.34549 12.9791Z" fill="#354759" mask="url(#path-1-inside-1_1379_69)"/>
</g>
<defs>
<filter id="filter0_d_1379_69" x="0" y="0" width="34" height="34" filterUnits="userSpaceOnUse" color-interpolation-filters="sRGB">
<feFlood flood-opacity="0" result="BackgroundImageFix"/>
<feColorMatrix in="SourceAlpha" type="matrix" values="0 0 0 0 0 0 0 0 0 0 0 0 0 0 0 0 0 0 127 0" result="hardAlpha"/>
<feOffset dy="4"/>
<feGaussianBlur stdDeviation="2"/>
<feComposite in2="hardAlpha" operator="out"/>
<feColorMatrix type="matrix" values="0 0 0 0 0 0 0 0 0 0 0 0 0 0 0 0 0 0 0.25 0"/>
<feBlend mode="normal" in2="BackgroundImageFix" result="effect1_dropShadow_1379_69"/>
<feBlend mode="normal" in="SourceGraphic" in2="effect1_dropShadow_1379_69" result="shape"/>
</filter>
</defs>
</svg>
