<svg width="456" height="456" viewBox="0 0 456 456" fill="none" xmlns="http://www.w3.org/2000/svg">
<path d="M456 228C456 353.921 353.921 456 228 456C102.079 456 0 353.921 0 228C0 102.079 102.079 0 228 0C353.921 0 456 102.079 456 228Z" fill="white"/>
<path d="M229.446 285.027L297.705 350.211L229.446 384.4L155.045 306.192L229.446 285.027Z" fill="#8DD9BA"/>
<path d="M230.641 277.619L298.9 342.804L230.641 376.993L156.24 298.785L230.641 277.619Z" fill="#716054"/>
<path d="M232.536 271.881L300.794 337.066L232.536 371.254L158.135 293.047L232.536 271.881Z" fill="url(#paint0_linear_1630_2)"/>
<path d="M228.023 295.992L261.483 312.321L245.948 343.347L200.537 322.119L228.023 295.992Z" fill="url(#paint1_radial_1630_2)"/>
<g clip-path="url(#clip0_1630_2)">
<path d="M273.353 259.27C256.327 276.296 232.753 273.236 232.753 273.236C232.753 273.236 229.692 249.662 246.719 232.636C265.679 213.676 296.774 209.215 296.774 209.215C296.774 209.215 292.362 240.261 273.353 259.27Z" fill="#C8E89F"/>
<path d="M188.419 259.27C205.445 276.295 229.019 273.235 229.019 273.235C229.019 273.235 232.079 249.661 215.053 232.636C196.093 213.676 164.998 209.214 164.998 209.214C164.998 209.214 169.41 240.261 188.419 259.27Z" fill="#8DD9BA"/>
<path d="M269.742 189.461C254.164 205.04 232.594 202.24 232.594 202.24C232.594 202.24 229.794 180.67 245.373 165.092C262.721 147.744 291.173 143.662 291.173 143.662C291.173 143.662 287.136 172.068 269.742 189.461Z" fill="#8DD9BA"/>
<path d="M192.028 189.461C207.607 205.04 229.177 202.24 229.177 202.24C229.177 202.24 231.977 180.67 216.398 165.092C199.05 147.744 170.598 143.661 170.598 143.661C170.598 143.661 174.635 172.068 192.028 189.461Z" fill="#C8E89F"/>
<path d="M265.565 123.181C251.661 137.085 232.411 134.586 232.411 134.586C232.411 134.586 229.912 115.336 243.816 101.432C259.299 85.9491 284.691 82.3062 284.691 82.3062C284.691 82.3062 281.087 107.658 265.565 123.181Z" fill="#C8E89F"/>
<path d="M196.206 123.181C210.11 137.085 229.36 134.586 229.36 134.586C229.36 134.586 231.859 115.336 217.955 101.432C202.472 85.9491 177.08 82.3062 177.08 82.3062C177.08 82.3062 180.683 107.658 196.206 123.181Z" fill="#8DD9BA"/>
<path d="M230.885 78.0251C230.413 78.0251 229.934 77.9741 229.468 77.8798C229.004 77.7856 228.546 77.6472 228.11 77.4656C227.667 77.2841 227.246 77.0589 226.854 76.7974C226.454 76.536 226.084 76.231 225.75 75.8966C224.398 74.5454 223.621 72.6713 223.621 70.7611C223.621 70.2814 223.672 69.8097 223.766 69.3374C223.854 68.8726 223.999 68.4148 224.181 67.9793C224.362 67.5432 224.587 67.1221 224.849 66.7297C225.11 66.3304 225.415 65.9599 225.75 65.6181C226.084 65.2838 226.454 64.9861 226.854 64.7173C227.246 64.4559 227.667 64.2307 228.11 64.0491C228.546 63.8676 229.004 63.7297 229.468 63.6349C230.405 63.4459 231.372 63.4459 232.301 63.6349C232.766 63.7292 233.224 63.8676 233.659 64.0491C234.102 64.2307 234.524 64.4559 234.916 64.7173C235.315 64.9861 235.685 65.2838 236.02 65.6181C236.355 65.9594 236.66 66.3299 236.921 66.7297C237.182 67.1221 237.407 67.5432 237.589 67.9793C237.77 68.4153 237.916 68.8726 238.003 69.3374C238.097 69.8097 238.148 70.2888 238.148 70.7611C238.148 72.6713 237.371 74.5459 236.019 75.8966C235.685 76.231 235.314 76.536 234.915 76.7974C234.523 77.0589 234.102 77.2841 233.659 77.4656C233.223 77.6472 232.766 77.7851 232.301 77.8798C231.836 77.9741 231.357 78.0251 230.885 78.0251Z" fill="#403F3F"/>
<path d="M301.906 204.074C300.288 202.458 298 201.698 295.742 202.024C294.374 202.22 262.017 207.064 241.581 227.499C240.347 228.733 239.207 229.996 238.149 231.278V209.676C246.789 209.44 262.389 207.087 274.879 194.597C293.769 175.708 298.186 145.941 298.364 144.683C298.686 142.42 297.923 140.136 296.306 138.521C294.687 136.905 292.401 136.146 290.141 136.47C288.882 136.651 259.078 141.112 240.236 159.954C239.503 160.688 238.816 161.436 238.15 162.189V141.972C246.125 141.636 259.735 139.282 270.701 128.317C287.743 111.275 291.721 84.4598 291.882 83.3263C292.204 81.0629 291.441 78.7796 289.823 77.1649C288.204 75.5493 285.918 74.7889 283.659 75.1143C282.523 75.277 255.676 79.2964 238.679 96.2939C238.496 96.4764 238.328 96.6634 238.15 96.848V92.5503C238.15 88.5382 234.897 85.2862 230.886 85.2862C226.874 85.2862 223.622 88.5382 223.622 92.5503V96.848C223.444 96.6644 223.276 96.4769 223.093 96.2939C206.096 79.2964 179.248 75.277 178.113 75.1143C175.852 74.7879 173.567 75.5493 171.948 77.1649C170.33 78.7806 169.568 81.0639 169.889 83.3273C170.051 84.4608 174.029 111.275 191.071 128.317C202.037 139.283 215.648 141.637 223.622 141.972V162.19C222.957 161.436 222.269 160.688 221.536 159.955C202.694 141.113 172.89 136.651 171.631 136.471C169.369 136.146 167.083 136.906 165.465 138.521C163.848 140.137 163.085 142.42 163.407 144.684C163.585 145.941 168.002 175.708 186.892 194.598C199.382 207.089 214.983 209.441 223.622 209.676V231.279C222.565 229.997 221.425 228.734 220.19 227.5C199.755 207.065 167.398 202.221 166.031 202.025C163.769 201.698 161.483 202.46 159.865 204.075C158.248 205.691 157.485 207.974 157.807 210.238C158.001 211.603 162.796 243.92 183.283 264.408C197.105 278.23 214.451 280.554 223.622 280.706V288.415C223.622 292.427 226.874 295.679 230.886 295.679C234.898 295.679 238.15 292.427 238.15 288.415V280.706C247.323 280.554 264.67 278.228 278.49 264.408C298.977 243.92 303.772 211.603 303.965 210.238C304.287 207.973 303.524 205.69 301.906 204.074ZM250.509 170.228C259.611 161.125 272.468 156.022 281.49 153.365C278.854 162.359 273.766 175.163 264.605 184.325C256.509 192.421 246.223 194.561 239.756 195.041C240.213 188.601 242.342 178.395 250.509 170.228ZM248.951 106.567C256.509 99.0092 267.032 94.5781 274.885 92.1326C272.457 99.9562 268.037 110.434 260.427 118.043C253.756 124.715 245.359 126.745 239.698 127.299C240.252 121.63 242.282 113.236 248.951 106.567ZM201.343 118.043C193.777 110.477 189.35 99.981 186.908 92.14C194.761 94.5875 205.268 99.0172 212.818 106.567C219.489 113.238 221.519 121.636 222.073 127.298C216.405 126.743 208.011 124.712 201.343 118.043ZM197.165 184.325C188.05 175.21 182.953 162.383 180.3 153.371C189.325 156.03 202.167 161.133 211.262 170.228C219.34 178.306 221.488 188.566 221.974 195.035C215.494 194.549 205.239 192.399 197.165 184.325ZM193.555 254.133C183.086 243.664 177.424 228.781 174.61 218.821C184.564 221.629 199.426 227.284 209.916 237.772C219.236 247.092 221.453 259.006 221.872 266.125C214.782 265.731 202.952 263.529 193.555 254.133ZM268.215 254.133C258.912 263.436 247.024 265.662 239.901 266.087C240.327 258.955 242.554 247.072 251.854 237.772C262.301 227.325 277.203 221.657 287.174 218.834C284.374 228.777 278.728 243.621 268.215 254.133Z" fill="#403F3F"/>
<path d="M230.885 317.468C230.413 317.468 229.934 317.424 229.468 317.33C229.004 317.236 228.546 317.097 228.11 316.916C227.667 316.734 227.246 316.509 226.854 316.248C226.454 315.979 226.084 315.681 225.75 315.347C225.415 315.006 225.11 314.635 224.849 314.235C224.587 313.843 224.362 313.422 224.181 312.986C223.999 312.543 223.854 312.092 223.766 311.627C223.672 311.155 223.621 310.676 223.621 310.204C223.621 309.732 223.672 309.252 223.766 308.787C223.854 308.322 223.999 307.864 224.181 307.429C224.362 306.993 224.587 306.564 224.849 306.172C225.11 305.773 225.415 305.403 225.75 305.068C226.084 304.734 226.454 304.429 226.854 304.167C227.246 303.906 227.667 303.681 228.11 303.499C228.546 303.318 229.004 303.18 229.468 303.085C230.405 302.896 231.372 302.896 232.301 303.085C232.766 303.179 233.224 303.318 233.659 303.499C234.102 303.681 234.524 303.906 234.916 304.167C235.315 304.429 235.685 304.734 236.02 305.068C236.355 305.403 236.66 305.773 236.921 306.172C237.182 306.565 237.407 306.993 237.589 307.429C237.77 307.865 237.916 308.322 238.003 308.787C238.097 309.252 238.148 309.732 238.148 310.204C238.148 310.676 238.097 311.155 238.003 311.627C237.916 312.092 237.77 312.543 237.589 312.986C237.407 313.422 237.182 313.843 236.921 314.235C236.66 314.635 236.355 315.005 236.02 315.347C235.685 315.681 235.315 315.979 234.916 316.248C234.523 316.509 234.102 316.734 233.659 316.916C233.223 317.097 232.766 317.235 232.301 317.33C231.836 317.424 231.357 317.468 230.885 317.468Z" fill="#403F3F"/>
</g>
<defs>
<linearGradient id="paint0_linear_1630_2" x1="216.456" y1="308.81" x2="161.621" y2="291.493" gradientUnits="userSpaceOnUse">
<stop stop-color="#C8E89F"/>
<stop offset="1" stop-color="#708259"/>
</linearGradient>
<radialGradient id="paint1_radial_1630_2" cx="0" cy="0" r="1" gradientUnits="userSpaceOnUse" gradientTransform="translate(231.01 319.669) rotate(90) scale(23.6776 30.4731)">
<stop stop-color="#5C5C5C"/>
<stop offset="0.41" stop-color="#1E1E1E" stop-opacity="0"/>
</radialGradient>
<clipPath id="clip0_1630_2">
<rect width="253.975" height="253.975" fill="white" transform="translate(103.898 63.4932)"/>
</clipPath>
</defs>
</svg>
