<svg width="800" height="800" viewBox="0 0 800 800" fill="none" xmlns="http://www.w3.org/2000/svg">
<g>
<path d="M530.575 544.7C501.825 532.7 433.475 509.125 391.45 496.725C387.875 495.6 387.3 495.425 387.3 480.5C387.3 468.175 392.375 455.775 397.325 445.275C402.675 433.875 409.025 414.675 411.3 397.475C417.675 390.075 426.35 375.475 431.95 347.65C436.85 323.125 434.55 314.2 431.3 305.825C430.975 304.95 430.6 304.075 430.35 303.2C429.125 297.45 430.8 267.575 435 244.4C437.9 228.5 434.25 194.675 412.35 166.7C398.525 149.025 372.075 127.3 323.75 124.3L297.25 124.325C249.75 127.325 223.25 149.025 209.425 166.7C187.525 194.675 183.9 228.5 186.775 244.4C191 267.6 192.675 297.475 191.45 303.1C191.2 304.075 190.825 304.95 190.475 305.85C187.25 314.225 184.95 323.15 189.85 347.675C195.4 375.5 204.1 390.1 210.5 397.5C212.75 414.7 219.1 433.9 224.475 445.3C228.4 453.65 230.225 465 230.225 481.075C230.225 496 229.65 496.175 226.3 497.225C182.85 510.05 113.675 535.05 87.875 546.35C67.4249 555.125 62.45 570.85 62.45 585.05C62.45 599.25 62.45 641.325 62.45 650.625C62.45 659.9 67.95 675.775 87.875 675.775C103.2 675.775 225.825 675.775 281.525 675.775C298.225 675.775 308.975 675.775 308.975 675.775H313.775C313.775 675.775 324.7 675.775 341.65 675.775C397.575 675.775 520.025 675.775 535.325 675.775C555.225 675.775 560.75 659.925 560.75 650.625C560.75 641.325 560.75 599.25 560.75 585.05C560.75 570.85 550.95 553.5 530.525 544.725L530.575 544.7ZM534.4 649.5H88.725V585.025C88.725 577.075 91.025 573.525 98.425 570.35C123.275 559.475 191.95 534.7 234.275 522.2C256.5 515.15 256.5 495.45 256.5 481.05C256.5 461.025 253.85 446.125 248.225 434.1C243.925 424.95 238.425 408.55 236.525 394.075L235.5 386.275L230.35 380.325C227.525 377.075 220.45 366.875 215.6 342.5C211.775 323.525 213.475 319.125 214.825 315.6C215.6 313.7 216.275 311.8 216.85 309.675L216.975 309.125L217.1 308.575C219.725 296.2 216.175 259.525 212.575 239.7C210.9 230.575 213 204.675 230.075 182.875C240.525 169.525 260.8 153.125 298.125 150.55L322.925 150.525C353.4 152.6 376.55 163.475 391.725 182.875C408.775 204.675 410.875 230.6 409.225 239.75C405.525 260.1 402.05 296.175 404.725 308.7L404.925 309.675L405.2 310.625C405.6 311.975 406.1 313.325 406.6 314.65L406.825 315.3L406.85 315.35C408.325 319.175 410.025 323.5 406.25 342.525C401.35 366.875 394.275 377.125 391.45 380.4L386.35 386.325L385.3 394.075C383.4 408.525 377.9 425 373.6 434.15C367.425 447.275 361.1 463.075 361.1 480.55C361.1 494.975 361.1 514.725 384.05 521.925C425.075 534.05 492.675 557.325 520.25 568.85C530.7 573.325 534.6 581.175 534.6 585.075L534.45 649.55L534.4 649.5Z" fill="#354759"/>
<path d="M639.45 361.025V256.4H613.225V361.025H508.575V387.25H613.225V491.875H639.45V387.25H744.075V361.025H639.45Z" fill="#354759"/>
</g>
</svg>
