<svg width="38" height="33" viewBox="0 0 38 33" fill="none" xmlns="http://www.w3.org/2000/svg">
<g filter="url(#filter0_d_1614_8)">
<path d="M29.7143 9.375C30.8505 9.37376 31.9399 8.93437 32.7433 8.15324C33.5468 7.37211 33.9987 6.31302 34 5.20833V2.08333H30.7857C29.6887 2.08507 28.6347 2.49786 27.8427 3.23583C27.2877 2.25659 26.4728 1.4399 25.4829 0.870804C24.493 0.301704 23.3643 0.00100012 22.2143 0H19V3.125C19.0019 4.78204 19.6798 6.3707 20.885 7.54241C22.0901 8.71412 23.7242 9.37318 25.4286 9.375H26.5V22.9167H13.6429V17.7083H14.7143C15.8505 17.7071 16.9399 17.2677 17.7433 16.4866C18.5468 15.7054 18.9987 14.6464 19 13.5417V10.4167H15.7857C14.6887 10.4184 13.6347 10.8312 12.8427 11.5692C12.2877 10.5899 11.4728 9.77324 10.4829 9.20414C9.49302 8.63504 8.3643 8.33433 7.21429 8.33333H4V11.4583C4.00187 13.1154 4.67977 14.704 5.88495 15.8757C7.09014 17.0474 8.72418 17.7065 10.4286 17.7083H11.5V22.9167H4V25H34V22.9167H28.6429V9.375H29.7143ZM28.6429 6.25C28.6434 5.69763 28.8694 5.16805 29.2711 4.77747C29.6729 4.38689 30.2176 4.16722 30.7857 4.16667H31.8571V5.20833C31.8566 5.7607 31.6306 6.29028 31.2289 6.68086C30.8271 7.07144 30.2824 7.29111 29.7143 7.29167H28.6429V6.25ZM13.6429 14.5833C13.6434 14.031 13.8694 13.5014 14.2711 13.1108C14.6729 12.7202 15.2176 12.5006 15.7857 12.5H16.8571V13.5417C16.8566 14.094 16.6306 14.6236 16.2289 15.0142C15.8271 15.4048 15.2824 15.6244 14.7143 15.625H13.6429V14.5833ZM11.5 15.625H10.4286C9.29232 15.6238 8.20297 15.1844 7.39952 14.4032C6.59607 13.6221 6.14413 12.563 6.14286 11.4583V10.4167H7.21429C8.35054 10.4179 9.43988 10.8573 10.2433 11.6384C11.0468 12.4196 11.4987 13.4786 11.5 14.5833V15.625ZM26.5 7.29167H25.4286C24.2923 7.29043 23.203 6.85104 22.3995 6.06991C21.5961 5.28877 21.1441 4.22969 21.1429 3.125V2.08333H22.2143C23.3505 2.08457 24.4399 2.52396 25.2433 3.30509C26.0468 4.08622 26.4987 5.14531 26.5 6.25V7.29167Z" fill="#354759"/>
</g>
<defs>
<filter id="filter0_d_1614_8" x="0" y="0" width="38" height="33" filterUnits="userSpaceOnUse" color-interpolation-filters="sRGB">
<feFlood flood-opacity="0" result="BackgroundImageFix"/>
<feColorMatrix in="SourceAlpha" type="matrix" values="0 0 0 0 0 0 0 0 0 0 0 0 0 0 0 0 0 0 127 0" result="hardAlpha"/>
<feOffset dy="4"/>
<feGaussianBlur stdDeviation="2"/>
<feComposite in2="hardAlpha" operator="out"/>
<feColorMatrix type="matrix" values="0 0 0 0 0 0 0 0 0 0 0 0 0 0 0 0 0 0 0.25 0"/>
<feBlend mode="normal" in2="BackgroundImageFix" result="effect1_dropShadow_1614_8"/>
<feBlend mode="normal" in="SourceGraphic" in2="effect1_dropShadow_1614_8" result="shape"/>
</filter>
</defs> 
</svg>
