<svg width="800" height="800" viewBox="0 0 800 800" fill="none" xmlns="http://www.w3.org/2000/svg">
<g>
<path d="M576.43 476.43C563.413 489.447 563.413 510.554 576.43 523.57C589.447 536.587 610.553 536.587 623.57 523.57L720.67 426.47C721.17 425.97 721.657 425.457 722.123 424.934C729 418.827 733.333 409.92 733.333 400C733.333 390.08 729 381.174 722.123 375.067C721.657 374.544 721.17 374.03 720.67 373.53L623.57 276.43C610.553 263.413 589.447 263.413 576.43 276.43C563.413 289.448 563.413 310.553 576.43 323.571L619.527 366.667H433.333C414.923 366.667 400 381.59 400 400C400 418.41 414.923 433.334 433.333 433.334H619.527L576.43 476.43Z" fill="#354759"/>
<path d="M166.667 66.667C111.438 66.667 66.6665 111.439 66.6665 166.667V633.334C66.6665 688.564 111.438 733.334 166.667 733.334H483.333C529.356 733.334 566.666 696.024 566.666 650V557.754C561.73 554.9 557.083 551.364 552.86 547.14C531.046 525.327 527.51 492.164 542.247 466.667H433.333C396.513 466.667 366.666 436.82 366.666 400C366.666 363.18 396.513 333.334 433.333 333.334H542.247C527.51 307.838 531.046 274.672 552.86 252.86C557.083 248.637 561.73 245.099 566.666 242.246V150C566.666 103.977 529.356 66.667 483.333 66.667H166.667Z" fill="#354759"/>
</g>
</svg>
