<svg width="800" height="800" viewBox="0 0 800 800" fill="none" xmlns="http://www.w3.org/2000/svg">
<g>
<path d="M144.592 652.208H213.168C222 652.208 229.168 645.056 229.168 636.208V519.184C229.168 510.336 222 503.184 213.168 503.184H144.592C135.76 503.184 128.592 510.336 128.592 519.184V636.208C128.592 645.04 135.76 652.208 144.592 652.208ZM160.592 535.168H197.168V620.192H160.592V535.168Z" fill="#354759"/>
<path d="M350.305 652.209C359.137 652.209 366.305 645.057 366.305 636.209V305.969C366.305 297.121 359.137 289.969 350.305 289.969H281.729C272.897 289.969 265.729 297.121 265.729 305.969V636.209C265.729 645.057 272.897 652.209 281.729 652.209H350.305ZM297.729 321.969H334.305V620.209H297.729V321.969Z" fill="#354759"/>
<path d="M487.441 652.207C496.273 652.207 503.441 645.055 503.441 636.207V415.359C503.441 406.511 496.273 399.359 487.441 399.359H418.881C410.049 399.359 402.881 406.511 402.881 415.359V636.207C402.881 645.055 410.049 652.207 418.881 652.207H487.441ZM434.881 431.359H471.457V620.207H434.881V431.359Z" fill="#354759"/>
<path d="M540.016 156.207V636.207C540.016 645.055 547.184 652.207 556.016 652.207H624.592C633.424 652.207 640.592 645.055 640.592 636.207V156.207C640.592 147.359 633.424 140.207 624.592 140.207H556.016C547.184 140.207 540.016 147.359 540.016 156.207ZM572.016 172.207H608.592V620.207H572.016V172.207Z" fill="#354759"/>
</g>
</svg>
