<svg width="800" height="800" viewBox="0 0 800 800" fill="none" xmlns="http://www.w3.org/2000/svg">
<g>
<path d="M566.667 666.666C566.667 611.436 492.047 566.666 400 566.666C307.953 566.666 233.333 611.436 233.333 666.666M700 566.679C700 525.673 658.863 490.429 600 474.999M100 566.679C100 525.673 141.137 490.429 200 474.999M600 341.203C620.457 322.892 633.333 296.283 633.333 266.666C633.333 211.438 588.563 166.666 533.333 166.666C507.72 166.666 484.36 176.294 466.667 192.129M200 341.203C179.542 322.892 166.667 296.283 166.667 266.666C166.667 211.438 211.438 166.666 266.667 166.666C292.278 166.666 315.641 176.294 333.333 192.129M400 466.666C344.77 466.666 300 421.896 300 366.666C300 311.438 344.77 266.666 400 266.666C455.23 266.666 500 311.438 500 366.666C500 421.896 455.23 466.666 400 466.666Z" stroke="#354759" stroke-width="66.6667" stroke-linecap="round" stroke-linejoin="round"/>
</g>
</svg>
